STARTFONT 2.1
COMMENT
COMMENT Converted from OpenType font "Patriot-Regular.otf" by "otf2bdf 3.0".
COMMENT
FONT -FreeType-Patriot-Medium-R-Normal--33-240-100-100-P-159-ISO10646-1
SIZE 24 100 100
FONTBOUNDINGBOX 53 44 -12 -9
STARTPROPERTIES 19
FOUNDRY "FreeType"
FAMILY_NAME "Patriot"
WEIGHT_NAME "Medium"
SLANT "R"
SETWIDTH_NAME "Normal"
ADD_STYLE_NAME ""
PIXEL_SIZE 33
POINT_SIZE 240
RESOLUTION_X 100
RESOLUTION_Y 100
SPACING "P"
AVERAGE_WIDTH 159
CHARSET_REGISTRY "ISO10646"
CHARSET_ENCODING "1"
FONT_ASCENT 33
FONT_DESCENT 6
COPYRIGHT "Copyright © 2020 by Behalf Studio. All rights reserved."
_OTF_FONTFILE "Patriot-Regular.otf"
_OTF_PSNAME "Patriot-Regular"
ENDPROPERTIES
CHARS 426
STARTCHAR 0020
ENCODING 32
SWIDTH 360 0
DWIDTH 12 0
BBX 0 0 0 0
BITMAP
ENDCHAR
STARTCHAR 0021
ENCODING 33
SWIDTH 240 0
DWIDTH 8 0
BBX 5 23 2 0
BITMAP
70
70
70
70
70
70
70
70
70
70
70
70
70
70
70
00
00
00
00
F0
F8
F8
F0
ENDCHAR
STARTCHAR 0022
ENCODING 34
SWIDTH 300 0
DWIDTH 10 0
BBX 7 7 2 16
BITMAP
CE
CE
CE
CE
CE
CE
CE
ENDCHAR
STARTCHAR 0023
ENCODING 35
SWIDTH 630 0
DWIDTH 21 0
BBX 17 23 2 0
BITMAP
070600
070600
060E00
060E00
060E00
0E0E00
0E0C00
7FFF80
7FFF80
0C1C00
0C1C00
0C1C00
1C1C00
1C1800
FFFF00
FFFF00
183800
183800
183800
383800
383000
383000
383000
ENDCHAR
STARTCHAR 0024
ENCODING 36
SWIDTH 540 0
DWIDTH 18 0
BBX 14 29 2 -3
BITMAP
0380
0380
0780
1FE0
3FF0
7B78
7338
733C
7310
7300
7B00
3F00
1F00
0FC0
03E0
03F8
0378
033C
031C
231C
E31C
F31C
733C
7FF8
3FF8
1FE0
0380
0380
0380
ENDCHAR
STARTCHAR 0025
ENCODING 37
SWIDTH 870 0
DWIDTH 29 0
BBX 25 24 2 0
BITMAP
0F000000
3F801C00
7BC03800
E0E07000
E0E06000
C060E000
C061C000
E0E18000
F1E38000
7FC70000
3F860000
000E0000
001C0000
00383C00
0030FE00
0071FF00
00E3C380
00C38380
01C38180
03838180
03038380
0703C780
0E01FF00
1C00FE00
ENDCHAR
STARTCHAR 0026
ENCODING 38
SWIDTH 630 0
DWIDTH 21 0
BBX 18 24 2 0
BITMAP
038000
1FF000
3FF800
7C7C00
783C00
701800
700000
700000
700000
780000
3FFFC0
1FFFC0
3FFFC0
7C0700
F00700
E00700
E00700
E00700
E00F00
F00E00
781E00
7FFC00
3FF800
0FE000
ENDCHAR
STARTCHAR 0027
ENCODING 39
SWIDTH 150 0
DWIDTH 5 0
BBX 2 7 2 16
BITMAP
C0
C0
C0
C0
C0
C0
C0
ENDCHAR
STARTCHAR 0028
ENCODING 40
SWIDTH 300 0
DWIDTH 10 0
BBX 7 30 2 -4
BITMAP
0E
0E
1C
18
38
30
70
70
60
E0
E0
C0
C0
C0
C0
C0
C0
C0
C0
E0
E0
60
60
70
30
38
18
1C
0E
0E
ENDCHAR
STARTCHAR 0029
ENCODING 41
SWIDTH 300 0
DWIDTH 10 0
BBX 7 30 2 -4
BITMAP
E0
E0
70
70
38
18
1C
1C
0C
0E
0E
0E
06
06
06
06
06
06
0E
0E
0E
0C
1C
1C
18
38
30
70
E0
C0
ENDCHAR
STARTCHAR 002A
ENCODING 42
SWIDTH 450 0
DWIDTH 15 0
BBX 11 11 2 12
BITMAP
0400
0E00
0E00
4E60
F5E0
FFE0
3F80
1F00
3B80
3BC0
31C0
ENDCHAR
STARTCHAR 002B
ENCODING 43
SWIDTH 540 0
DWIDTH 18 0
BBX 15 15 2 4
BITMAP
0380
0380
0380
0380
0380
0380
0380
FFFE
FFFE
0380
0380
0380
0380
0380
0380
ENDCHAR
STARTCHAR 002C
ENCODING 44
SWIDTH 240 0
DWIDTH 8 0
BBX 5 7 2 -4
BITMAP
38
38
70
70
60
C0
C0
ENDCHAR
STARTCHAR 002D
ENCODING 45
SWIDTH 420 0
DWIDTH 14 0
BBX 11 2 2 7
BITMAP
FFE0
FFE0
ENDCHAR
STARTCHAR 002E
ENCODING 46
SWIDTH 240 0
DWIDTH 8 0
BBX 5 4 2 0
BITMAP
F0
F8
F8
F0
ENDCHAR
STARTCHAR 002F
ENCODING 47
SWIDTH 390 0
DWIDTH 13 0
BBX 9 25 2 -1
BITMAP
0180
0380
0380
0300
0300
0700
0700
0600
0E00
0E00
0C00
1C00
1C00
1C00
1800
3800
3800
3000
7000
7000
7000
6000
E000
E000
C000
ENDCHAR
STARTCHAR 0030
ENCODING 48
SWIDTH 690 0
DWIDTH 23 0
BBX 22 25 1 -1
BITMAP
00F800
03FF00
0FFF80
1F07E0
3C01E0
3800F0
780078
700038
F00038
E00038
E00038
E0001C
E0001C
E0001C
E00038
E00038
700038
700078
780070
3C00F0
1E01E0
1FCFC0
07FF80
03FE00
002000
ENDCHAR
STARTCHAR 0031
ENCODING 49
SWIDTH 270 0
DWIDTH 9 0
BBX 7 23 1 0
BITMAP
0E
0E
FE
FE
0E
0E
0E
0E
0E
0E
0E
0E
0E
0E
0E
0E
0E
0E
0E
0E
0E
0E
0E
ENDCHAR
STARTCHAR 0032
ENCODING 50
SWIDTH 540 0
DWIDTH 18 0
BBX 16 24 1 0
BITMAP
03C0
0FF8
3FFC
3C3E
781E
700E
F00E
E00E
000E
000E
001E
001C
003C
0078
00F0
01E0
03C0
0780
0700
0E00
3C00
7FFF
7FFF
FFFF
ENDCHAR
STARTCHAR 0033
ENCODING 51
SWIDTH 510 0
DWIDTH 17 0
BBX 16 24 1 -1
BITMAP
7FFC
7FFC
0078
00F0
01E0
03C0
0780
0FC0
1FF0
3FF8
383C
001E
000E
000E
000F
000F
000E
000E
201E
F03C
7CFC
3FF8
1FE0
0100
ENDCHAR
STARTCHAR 0034
ENCODING 52
SWIDTH 510 0
DWIDTH 17 0
BBX 17 23 0 0
BITMAP
007E00
03FE00
07FE00
0F8E00
1E0E00
1C0E00
3C0E00
380E00
700E00
700E00
700E00
700E00
F00E00
FFFF80
FFFF80
FFFF80
000E00
000E00
000E00
000E00
000E00
000E00
000E00
ENDCHAR
STARTCHAR 0035
ENCODING 53
SWIDTH 540 0
DWIDTH 18 0
BBX 15 24 2 -1
BITMAP
7FFC
7FFC
E000
E000
E000
E000
E000
EFC0
FFF0
FFF8
F03C
601C
001E
000E
000E
000E
000E
001E
401C
E03C
FDF8
7FF0
1FE0
0200
ENDCHAR
STARTCHAR 0036
ENCODING 54
SWIDTH 600 0
DWIDTH 20 0
BBX 18 24 1 -1
BITMAP
00F000
00E000
01C000
03C000
038000
070000
0FF000
1FFC00
1FFF00
3E0F80
380780
7003C0
7001C0
7001C0
E001C0
F001C0
7001C0
7001C0
780380
3C0780
1FBF00
1FFE00
07FC00
004000
ENDCHAR
STARTCHAR 0037
ENCODING 55
SWIDTH 450 0
DWIDTH 15 0
BBX 14 23 1 0
BITMAP
FFFC
FFFC
FFFC
0038
0038
0070
0070
00F0
00E0
7FF8
7FF8
7FF8
03C0
0380
0380
0700
0700
0E00
0E00
0E00
1C00
1C00
3800
ENDCHAR
STARTCHAR 0038
ENCODING 56
SWIDTH 540 0
DWIDTH 18 0
BBX 17 25 1 -1
BITMAP
01C000
07F000
0FF800
1C3C00
1C1C00
1C1C00
1C1C00
1C3C00
0FF800
0FF800
3FFC00
7C1E00
700F00
F00700
E00380
E00380
E00380
E00380
E00780
700700
780F00
3F7E00
1FFC00
0FF800
008000
ENDCHAR
STARTCHAR 0039
ENCODING 57
SWIDTH 570 0
DWIDTH 19 0
BBX 18 24 1 0
BITMAP
03E000
0FFC00
1FFE00
3E1F00
780780
700380
F003C0
E001C0
E001C0
E001C0
E001C0
F00380
700380
780780
3E1F00
1FFE00
0FFE00
00BC00
003800
007800
00F000
00E000
01C000
03C000
ENDCHAR
STARTCHAR 003A
ENCODING 58
SWIDTH 240 0
DWIDTH 8 0
BBX 5 16 2 0
BITMAP
70
F8
F8
F0
60
00
00
00
00
00
00
00
F0
F8
F8
F0
ENDCHAR
STARTCHAR 003B
ENCODING 59
SWIDTH 270 0
DWIDTH 9 0
BBX 6 20 2 -4
BITMAP
38
7C
7C
78
30
00
00
00
00
00
00
00
00
38
38
70
70
60
C0
C0
ENDCHAR
STARTCHAR 003C
ENCODING 60
SWIDTH 540 0
DWIDTH 18 0
BBX 15 13 2 3
BITMAP
0006
003E
01FC
0FE0
3F00
F800
E000
F800
7F00
0FE0
01F8
007E
000E
ENDCHAR
STARTCHAR 003D
ENCODING 61
SWIDTH 540 0
DWIDTH 18 0
BBX 15 10 2 6
BITMAP
FFFE
FFFE
FFFE
0000
0000
0000
0000
FFFE
FFFE
FFFE
ENDCHAR
STARTCHAR 003E
ENCODING 62
SWIDTH 540 0
DWIDTH 18 0
BBX 15 13 2 3
BITMAP
C000
F800
7E00
0FC0
03F8
007E
000E
003E
01F8
0FE0
7F00
F800
E000
ENDCHAR
STARTCHAR 003F
ENCODING 63
SWIDTH 420 0
DWIDTH 14 0
BBX 10 24 2 0
BITMAP
0C00
3F80
7FC0
E1C0
E1C0
40C0
01C0
01C0
0380
0780
0700
0E00
0E00
1C00
1C00
1C00
1C00
0000
0000
0000
1E00
3E00
3E00
1E00
ENDCHAR
STARTCHAR 0040
ENCODING 64
SWIDTH 780 0
DWIDTH 26 0
BBX 23 24 2 0
BITMAP
007E00
03FFC0
0781E0
0E0070
180018
30001C
70380C
60FD8E
E1FF86
C1C306
C18306
C38306
C3830E
C3830C
C3871C
C1FFB8
E0FBF0
6020C0
700000
380000
1C0038
0F0070
07FFE0
01FF80
ENDCHAR
STARTCHAR 0041
ENCODING 65
SWIDTH 540 0
DWIDTH 18 0
BBX 16 24 2 0
BITMAP
0780
1FE0
7FF0
78F8
F038
E038
E03C
E01C
E01C
E01C
E01C
E01C
E01C
E01C
E01C
E01C
E01C
E01C
E01C
E01C
E01C
FFFF
FFFF
FFFF
ENDCHAR
STARTCHAR 0042
ENCODING 66
SWIDTH 600 0
DWIDTH 20 0
BBX 18 23 1 0
BITMAP
3FFC00
3FFF00
3FFF80
380780
380380
3803C0
3803C0
380380
380380
381F80
FFFF00
FFFF00
FFFF80
3803C0
3801C0
3801C0
3801C0
3801C0
3803C0
3807C0
3FFF80
3FFF00
3FFC00
ENDCHAR
STARTCHAR 0043
ENCODING 67
SWIDTH 660 0
DWIDTH 22 0
BBX 21 25 1 -1
BITMAP
007E00
01FFC0
07FFF0
0FC1F8
1F0078
3C0030
780000
780000
700000
F00000
E00000
E00000
E00000
E00000
E00000
F00000
700000
780000
380000
3E0030
1F0078
0FF7F0
03FFE0
01FF80
000800
ENDCHAR
STARTCHAR 0044
ENCODING 68
SWIDTH 630 0
DWIDTH 21 0
BBX 19 23 2 0
BITMAP
FFE000
FFF800
FFFE00
E01F00
E00F80
E00780
E003C0
E001C0
E001C0
E001C0
E001E0
E001E0
E001E0
E001C0
E001C0
E003C0
E003C0
E00780
E00F00
E03F00
FFFC00
FFF800
FFC000
ENDCHAR
STARTCHAR 0045
ENCODING 69
SWIDTH 480 0
DWIDTH 16 0
BBX 15 23 1 0
BITMAP
3FF0
3FF0
3FF0
3800
3800
3800
3800
3800
3800
3800
FFF8
FFF8
FFF8
3800
3800
3800
3800
3800
3800
3800
3FFE
3FFE
3FFE
ENDCHAR
STARTCHAR 0046
ENCODING 70
SWIDTH 450 0
DWIDTH 15 0
BBX 14 23 1 0
BITMAP
1FFC
1FFC
1FFC
1C00
1C00
1C00
1C00
1C00
1C00
1C00
FFFC
FFFC
FFFC
1C00
1C00
1C00
1C00
1C00
1C00
1C00
1C00
1C00
1C00
ENDCHAR
STARTCHAR 0047
ENCODING 71
SWIDTH 810 0
DWIDTH 27 0
BBX 27 25 1 -1
BITMAP
003E0000
01FFC000
07FFF000
0FC1F800
1F007800
3C003000
38000000
78000000
70000000
F0000000
E0000000
E00FFFE0
E00FFFE0
E00FFFE0
E0000700
F0000700
70000F00
78000E00
3C001E00
3E003C00
1F007C00
0FF7F800
03FFE000
00FF8000
00080000
ENDCHAR
STARTCHAR 0048
ENCODING 72
SWIDTH 540 0
DWIDTH 18 0
BBX 16 23 1 0
BITMAP
3807
3807
3807
3807
3807
3807
3807
3807
3807
FFFF
FFFF
FFFF
3807
3807
3807
3807
3807
3807
3807
3807
3807
3807
3807
ENDCHAR
STARTCHAR 0049
ENCODING 73
SWIDTH 180 0
DWIDTH 6 0
BBX 8 26 -1 1
BITMAP
08
18
18
FF
3C
3C
26
02
00
00
00
00
1C
1C
1C
1C
1C
1C
1C
1C
1C
1C
1C
1C
1C
1C
ENDCHAR
STARTCHAR 004A
ENCODING 74
SWIDTH 450 0
DWIDTH 15 0
BBX 13 24 1 -1
BITMAP
01F8
01F8
01F8
0038
0038
0038
0038
0038
0038
0038
0038
0038
0038
0038
0038
0038
0038
0078
6070
E0F0
FBF0
7FE0
3FC0
0600
ENDCHAR
STARTCHAR 004B
ENCODING 75
SWIDTH 510 0
DWIDTH 17 0
BBX 15 23 1 0
BITMAP
381C
381C
381C
381C
381C
381C
381C
383C
3838
38F8
FFF0
FFF8
FFFC
381E
380E
380E
380E
380E
380E
380E
380E
380E
380E
ENDCHAR
STARTCHAR 004C
ENCODING 76
SWIDTH 420 0
DWIDTH 14 0
BBX 12 23 2 0
BITMAP
E000
E000
E000
E000
E000
E000
E000
E000
E000
E000
E000
E000
E000
E000
E000
E000
E000
E000
E000
E000
FFF0
FFF0
FFF0
ENDCHAR
STARTCHAR 004D
ENCODING 77
SWIDTH 840 0
DWIDTH 28 0
BBX 27 24 0 0
BITMAP
20040000
700600E0
FC0780E0
3E07C0E0
1F07E0E0
1F87F8E0
1FE77CE0
1DF73EE0
1C7F0FE0
1C3F07E0
1C1F03E0
1C0F01E0
1C0700E0
1C0700E0
1C0700E0
1C0700E0
1C0700E0
1C0700E0
1C0700E0
1C0700E0
1C0700E0
1C0700E0
1C0700E0
1C0700E0
ENDCHAR
STARTCHAR 004E
ENCODING 78
SWIDTH 510 0
DWIDTH 17 0
BBX 16 24 0 0
BITMAP
2000
7007
FC07
3E07
3F07
3F87
3BE7
39F7
38FF
383F
381F
380F
3807
3807
3807
3807
3807
3807
3807
3807
3807
3807
3807
3807
ENDCHAR
STARTCHAR 004F
ENCODING 79
SWIDTH 810 0
DWIDTH 27 0
BBX 25 25 1 -1
BITMAP
003F0000
01FFC000
07FFF000
0FC1F800
1F003C00
3C001E00
38000F00
78000700
70000700
F0000380
E0000380
E0000380
E0000380
E0000380
E0000380
F0000780
70000700
78000F00
3C000E00
3E001E00
1F007C00
0FF7F800
03FFF000
00FFC000
000C0000
ENDCHAR
STARTCHAR 0050
ENCODING 80
SWIDTH 540 0
DWIDTH 18 0
BBX 17 23 1 0
BITMAP
3FF800
3FFE00
3FFF00
380F00
380780
380380
380380
380380
380380
380780
380F00
FFFE00
FFFC00
FFF000
380000
380000
380000
380000
380000
380000
380000
380000
380000
ENDCHAR
STARTCHAR 0051
ENCODING 81
SWIDTH 810 0
DWIDTH 27 0
BBX 25 25 1 -1
BITMAP
003F0000
01FFC000
07FFF000
0FC1F800
1F003C00
3C001E00
38000F00
78000700
70000700
F0000380
E0000380
E0000380
E0000380
E0000380
E0000380
F0000780
70004700
7800EF00
3C01FE00
3E00FE00
1F007C00
0FF7FE00
03FFFF00
00FFCE00
000C0400
ENDCHAR
STARTCHAR 0052
ENCODING 82
SWIDTH 570 0
DWIDTH 19 0
BBX 17 23 1 0
BITMAP
3FF800
3FFE00
3FFF00
380780
380380
380380
380380
380380
380380
380780
381F00
FFFF00
FFFC00
FFFC00
381E00
380F00
380700
380700
380700
380700
380700
380700
380700
ENDCHAR
STARTCHAR 0053
ENCODING 83
SWIDTH 480 0
DWIDTH 16 0
BBX 14 25 1 -1
BITMAP
0780
1FF0
3FF8
7C78
783C
701C
7010
7800
3800
3E00
1F80
0FC0
03F0
00F8
007C
003C
001C
201C
E01C
F01C
783C
7EFC
3FF8
1FF0
0100
ENDCHAR
STARTCHAR 0054
ENCODING 84
SWIDTH 480 0
DWIDTH 16 0
BBX 15 23 1 0
BITMAP
FFFE
FFFE
FFFE
0380
0380
0380
0380
0380
0380
0380
0380
0380
0380
0380
0380
0380
0380
0380
0380
0380
0380
0380
0380
ENDCHAR
STARTCHAR 0055
ENCODING 85
SWIDTH 480 0
DWIDTH 16 0
BBX 15 24 1 -1
BITMAP
F01E
F01E
F01E
F01E
F01E
F01E
F01E
F01E
F01E
F01E
F01E
F01E
F01E
F01E
F01E
F01E
F01C
701C
701C
783C
3EF8
1FF0
0FE0
0100
ENDCHAR
STARTCHAR 0056
ENCODING 86
SWIDTH 450 0
DWIDTH 15 0
BBX 14 23 0 0
BITMAP
F01C
F01C
F01C
F01C
F01C
F01C
F01C
F01C
F01C
F01C
F01C
F01C
F01C
703C
703C
7038
7038
7878
3870
3CF0
1EE0
0FC0
0780
ENDCHAR
STARTCHAR 0057
ENCODING 87
SWIDTH 780 0
DWIDTH 26 0
BBX 24 23 0 0
BITMAP
F01C07
F01C07
F01C07
F01C07
F01C07
F01C07
F01C07
F01C07
F01C07
F01C07
F01C07
F01C07
F01C07
703C07
703C07
703E07
703E0F
787E0E
387F1E
3CF71C
1EE3BC
0FC3F8
0781F0
ENDCHAR
STARTCHAR 0058
ENCODING 88
SWIDTH 510 0
DWIDTH 17 0
BBX 14 23 2 0
BITMAP
E01C
E01C
E01C
E01C
E03C
E03C
E038
F078
7FF0
3FE0
3FF0
7CF0
F078
E038
E03C
E03C
E01C
E01C
E01C
E01C
E01C
E01C
E01C
ENDCHAR
STARTCHAR 0059
ENCODING 89
SWIDTH 480 0
DWIDTH 16 0
BBX 14 23 1 0
BITMAP
E01C
E01C
E01C
E01C
E01C
E01C
E01C
E01C
E01C
E01C
E01C
F01C
701C
783C
3EF8
3FF0
0FE0
0380
0380
0380
0380
0380
0380
ENDCHAR
STARTCHAR 005A
ENCODING 90
SWIDTH 480 0
DWIDTH 16 0
BBX 15 23 1 0
BITMAP
FFFE
FFFE
FFFC
003C
0038
0078
00F0
00E0
01E0
01C0
03C0
0380
0700
0F00
0E00
1E00
3C00
3800
7800
7000
FFFC
FFFC
FFFC
ENDCHAR
STARTCHAR 005B
ENCODING 91
SWIDTH 210 0
DWIDTH 7 0
BBX 4 32 2 -5
BITMAP
F0
F0
C0
C0
C0
C0
C0
C0
C0
C0
C0
C0
C0
C0
C0
C0
C0
C0
C0
C0
C0
C0
C0
C0
C0
C0
C0
C0
C0
C0
F0
F0
ENDCHAR
STARTCHAR 005C
ENCODING 92
SWIDTH 390 0
DWIDTH 13 0
BBX 9 25 2 -1
BITMAP
C000
E000
E000
6000
7000
7000
3000
3000
3800
3800
1800
1C00
1C00
0C00
0E00
0E00
0E00
0600
0700
0700
0300
0380
0380
0380
0180
ENDCHAR
STARTCHAR 005D
ENCODING 93
SWIDTH 210 0
DWIDTH 7 0
BBX 4 32 2 -5
BITMAP
F0
F0
30
30
30
30
30
30
30
30
30
30
30
30
30
30
30
30
30
30
30
30
30
30
30
30
30
30
30
30
F0
F0
ENDCHAR
STARTCHAR 005E
ENCODING 94
SWIDTH 480 0
DWIDTH 16 0
BBX 12 8 2 12
BITMAP
0F00
0F00
1F80
39C0
30C0
70E0
6060
E070
ENDCHAR
STARTCHAR 005F
ENCODING 95
SWIDTH 510 0
DWIDTH 17 0
BBX 14 2 2 -3
BITMAP
FFFC
FFFC
ENDCHAR
STARTCHAR 0060
ENCODING 96
SWIDTH 150 0
DWIDTH 5 0
BBX 5 5 0 25
BITMAP
E0
60
30
38
18
ENDCHAR
STARTCHAR 0061
ENCODING 97
SWIDTH 540 0
DWIDTH 18 0
BBX 16 24 2 0
BITMAP
0780
1FE0
7FF0
78F8
F038
E038
E03C
E01C
E01C
E01C
E01C
E01C
E01C
E01C
E01C
E01C
E01C
E01C
E01C
E01C
E01C
FFFF
FFFF
FFFF
ENDCHAR
STARTCHAR 0062
ENCODING 98
SWIDTH 600 0
DWIDTH 20 0
BBX 18 23 1 0
BITMAP
3FFC00
3FFF00
3FFF80
380780
380380
3803C0
3803C0
380380
380380
381F80
FFFF00
FFFF00
FFFF80
3803C0
3801C0
3801C0
3801C0
3801C0
3803C0
3807C0
3FFF80
3FFF00
3FFC00
ENDCHAR
STARTCHAR 0063
ENCODING 99
SWIDTH 660 0
DWIDTH 22 0
BBX 21 25 1 -1
BITMAP
007E00
01FFC0
07FFF0
0FC1F8
1F0078
3C0030
780000
780000
700000
F00000
E00000
E00000
E00000
E00000
E00000
F00000
700000
780000
380000
3E0030
1F0078
0FF7F0
03FFE0
01FF80
000800
ENDCHAR
STARTCHAR 0064
ENCODING 100
SWIDTH 630 0
DWIDTH 21 0
BBX 19 23 2 0
BITMAP
FFE000
FFF800
FFFE00
E01F00
E00F80
E00780
E003C0
E001C0
E001C0
E001C0
E001E0
E001E0
E001E0
E001C0
E001C0
E003C0
E003C0
E00780
E00F00
E03F00
FFFC00
FFF800
FFC000
ENDCHAR
STARTCHAR 0065
ENCODING 101
SWIDTH 480 0
DWIDTH 16 0
BBX 15 23 1 0
BITMAP
3FF0
3FF0
3FF0
3800
3800
3800
3800
3800
3800
3800
FFF8
FFF8
FFF8
3800
3800
3800
3800
3800
3800
3800
3FFE
3FFE
3FFE
ENDCHAR
STARTCHAR 0066
ENCODING 102
SWIDTH 450 0
DWIDTH 15 0
BBX 14 23 1 0
BITMAP
1FFC
1FFC
1FFC
1C00
1C00
1C00
1C00
1C00
1C00
1C00
FFFC
FFFC
FFFC
1C00
1C00
1C00
1C00
1C00
1C00
1C00
1C00
1C00
1C00
ENDCHAR
STARTCHAR 0067
ENCODING 103
SWIDTH 810 0
DWIDTH 27 0
BBX 27 25 1 -1
BITMAP
003E0000
01FFC000
07FFF000
0FC1F800
1F007800
3C003000
38000000
78000000
70000000
F0000000
E0000000
E00FFFE0
E00FFFE0
E00FFFE0
E0000700
F0000700
70000F00
78000E00
3C001E00
3E003C00
1F007C00
0FF7F800
03FFE000
00FF8000
00080000
ENDCHAR
STARTCHAR 0068
ENCODING 104
SWIDTH 540 0
DWIDTH 18 0
BBX 16 23 1 0
BITMAP
3807
3807
3807
3807
3807
3807
3807
3807
3807
FFFF
FFFF
FFFF
3807
3807
3807
3807
3807
3807
3807
3807
3807
3807
3807
ENDCHAR
STARTCHAR 0069
ENCODING 105
SWIDTH 180 0
DWIDTH 6 0
BBX 8 26 -1 1
BITMAP
08
18
18
FF
3C
3C
26
02
00
00
00
00
1C
1C
1C
1C
1C
1C
1C
1C
1C
1C
1C
1C
1C
1C
ENDCHAR
STARTCHAR 006A
ENCODING 106
SWIDTH 450 0
DWIDTH 15 0
BBX 13 24 1 -1
BITMAP
01F8
01F8
01F8
0038
0038
0038
0038
0038
0038
0038
0038
0038
0038
0038
0038
0038
0038
0078
6070
E0F0
FBF0
7FE0
3FC0
0600
ENDCHAR
STARTCHAR 006B
ENCODING 107
SWIDTH 510 0
DWIDTH 17 0
BBX 15 23 1 0
BITMAP
381C
381C
381C
381C
381C
381C
381C
383C
3838
38F8
FFF0
FFF8
FFFC
381E
380E
380E
380E
380E
380E
380E
380E
380E
380E
ENDCHAR
STARTCHAR 006C
ENCODING 108
SWIDTH 420 0
DWIDTH 14 0
BBX 12 23 2 0
BITMAP
E000
E000
E000
E000
E000
E000
E000
E000
E000
E000
E000
E000
E000
E000
E000
E000
E000
E000
E000
E000
FFF0
FFF0
FFF0
ENDCHAR
STARTCHAR 006D
ENCODING 109
SWIDTH 840 0
DWIDTH 28 0
BBX 27 24 0 0
BITMAP
20040000
700600E0
FC0780E0
3E07C0E0
1F07E0E0
1F87F8E0
1FE77CE0
1DF73EE0
1C7F0FE0
1C3F07E0
1C1F03E0
1C0F01E0
1C0700E0
1C0700E0
1C0700E0
1C0700E0
1C0700E0
1C0700E0
1C0700E0
1C0700E0
1C0700E0
1C0700E0
1C0700E0
1C0700E0
ENDCHAR
STARTCHAR 006E
ENCODING 110
SWIDTH 510 0
DWIDTH 17 0
BBX 16 24 0 0
BITMAP
2000
7007
FC07
3E07
3F07
3F87
3BE7
39F7
38FF
383F
381F
380F
3807
3807
3807
3807
3807
3807
3807
3807
3807
3807
3807
3807
ENDCHAR
STARTCHAR 006F
ENCODING 111
SWIDTH 810 0
DWIDTH 27 0
BBX 25 25 1 -1
BITMAP
003F0000
01FFC000
07FFF000
0FC1F800
1F003C00
3C001E00
38000F00
78000700
70000700
F0000380
E0000380
E0000380
E0000380
E0000380
E0000380
F0000780
70000700
78000F00
3C000E00
3E001E00
1F007C00
0FF7F800
03FFF000
00FFC000
000C0000
ENDCHAR
STARTCHAR 0070
ENCODING 112
SWIDTH 540 0
DWIDTH 18 0
BBX 17 23 1 0
BITMAP
3FF800
3FFE00
3FFF00
380F00
380780
380380
380380
380380
380380
380780
380F00
FFFE00
FFFC00
FFF000
380000
380000
380000
380000
380000
380000
380000
380000
380000
ENDCHAR
STARTCHAR 0071
ENCODING 113
SWIDTH 810 0
DWIDTH 27 0
BBX 25 25 1 -1
BITMAP
003F0000
01FFC000
07FFF000
0FC1F800
1F003C00
3C001E00
38000F00
78000700
70000700
F0000380
E0000380
E0000380
E0000380
E0000380
E0000380
F0000780
70004700
7800EF00
3C01FE00
3E00FE00
1F007C00
0FF7FE00
03FFFF00
00FFCE00
000C0400
ENDCHAR
STARTCHAR 0072
ENCODING 114
SWIDTH 570 0
DWIDTH 19 0
BBX 17 23 1 0
BITMAP
3FF800
3FFE00
3FFF00
380780
380380
380380
380380
380380
380380
380780
381F00
FFFF00
FFFC00
FFFC00
381E00
380F00
380700
380700
380700
380700
380700
380700
380700
ENDCHAR
STARTCHAR 0073
ENCODING 115
SWIDTH 480 0
DWIDTH 16 0
BBX 14 25 1 -1
BITMAP
0780
1FF0
3FF8
7C78
783C
701C
7010
7800
3800
3E00
1F80
0FC0
03F0
00F8
007C
003C
001C
201C
E01C
F01C
783C
7EFC
3FF8
1FF0
0100
ENDCHAR
STARTCHAR 0074
ENCODING 116
SWIDTH 480 0
DWIDTH 16 0
BBX 15 23 1 0
BITMAP
FFFE
FFFE
FFFE
0380
0380
0380
0380
0380
0380
0380
0380
0380
0380
0380
0380
0380
0380
0380
0380
0380
0380
0380
0380
ENDCHAR
STARTCHAR 0075
ENCODING 117
SWIDTH 480 0
DWIDTH 16 0
BBX 15 24 1 -1
BITMAP
F01E
F01E
F01E
F01E
F01E
F01E
F01E
F01E
F01E
F01E
F01E
F01E
F01E
F01E
F01E
F01E
F01C
701C
701C
783C
3EF8
1FF0
0FE0
0100
ENDCHAR
STARTCHAR 0076
ENCODING 118
SWIDTH 450 0
DWIDTH 15 0
BBX 14 23 0 0
BITMAP
F01C
F01C
F01C
F01C
F01C
F01C
F01C
F01C
F01C
F01C
F01C
F01C
F01C
703C
703C
7038
7038
7878
3870
3CF0
1EE0
0FC0
0780
ENDCHAR
STARTCHAR 0077
ENCODING 119
SWIDTH 780 0
DWIDTH 26 0
BBX 24 23 0 0
BITMAP
F01C07
F01C07
F01C07
F01C07
F01C07
F01C07
F01C07
F01C07
F01C07
F01C07
F01C07
F01C07
F01C07
703C07
703C07
703E07
703E0F
787E0E
387F1E
3CF71C
1EE3BC
0FC3F8
0781F0
ENDCHAR
STARTCHAR 0078
ENCODING 120
SWIDTH 510 0
DWIDTH 17 0
BBX 14 23 2 0
BITMAP
E01C
E01C
E01C
E01C
E03C
E03C
E038
F078
7FF0
3FE0
3FF0
7CF0
F078
E038
E03C
E03C
E01C
E01C
E01C
E01C
E01C
E01C
E01C
ENDCHAR
STARTCHAR 0079
ENCODING 121
SWIDTH 480 0
DWIDTH 16 0
BBX 14 23 1 0
BITMAP
E01C
E01C
E01C
E01C
E01C
E01C
E01C
E01C
E01C
E01C
E01C
F01C
701C
783C
3EF8
3FF0
0FE0
0380
0380
0380
0380
0380
0380
ENDCHAR
STARTCHAR 007A
ENCODING 122
SWIDTH 480 0
DWIDTH 16 0
BBX 15 23 1 0
BITMAP
FFFE
FFFE
FFFC
003C
0038
0078
00F0
00E0
01E0
01C0
03C0
0380
0700
0F00
0E00
1E00
3C00
3800
7800
7000
FFFC
FFFC
FFFC
ENDCHAR
STARTCHAR 007B
ENCODING 123
SWIDTH 330 0
DWIDTH 11 0
BBX 8 32 2 -5
BITMAP
0F
1F
38
38
38
38
38
38
38
38
38
38
38
30
F0
E0
E0
70
30
38
38
38
38
38
38
38
38
38
38
1F
1F
07
ENDCHAR
STARTCHAR 007C
ENCODING 124
SWIDTH 150 0
DWIDTH 5 0
BBX 2 28 2 -4
BITMAP
C0
C0
C0
C0
C0
C0
C0
C0
C0
C0
C0
C0
C0
C0
C0
C0
C0
C0
C0
C0
C0
C0
C0
C0
C0
C0
C0
C0
ENDCHAR
STARTCHAR 007D
ENCODING 125
SWIDTH 330 0
DWIDTH 11 0
BBX 8 32 2 -5
BITMAP
F0
F8
38
18
18
18
18
18
18
18
18
18
18
1C
1F
0F
0F
1C
18
18
18
18
18
18
18
18
18
18
18
F8
F0
E0
ENDCHAR
STARTCHAR 007E
ENCODING 126
SWIDTH 540 0
DWIDTH 18 0
BBX 14 4 2 9
BITMAP
3000
FFCC
FFFC
01FC
ENDCHAR
STARTCHAR 00A1
ENCODING 161
SWIDTH 240 0
DWIDTH 8 0
BBX 5 24 2 -4
BITMAP
70
F8
F8
F0
60
00
00
00
70
70
70
70
70
70
70
70
70
70
70
70
70
70
70
70
ENDCHAR
STARTCHAR 00A2
ENCODING 162
SWIDTH 510 0
DWIDTH 17 0
BBX 14 21 2 1
BITMAP
0380
0380
0380
1FF0
3FF8
7B38
7300
E300
E300
C300
C300
C300
E300
E300
7310
3F7C
1FF8
0FE0
0380
0380
0380
ENDCHAR
STARTCHAR 00A3
ENCODING 163
SWIDTH 540 0
DWIDTH 18 0
BBX 14 24 2 0
BITMAP
0070
07FC
0FFC
1F8C
3E00
3C00
3800
3800
3800
3800
3C00
FFF8
FFF8
FFF8
0E00
0E00
0E00
0F00
0E00
0E00
3E00
FFFC
FFFC
FFFC
ENDCHAR
STARTCHAR 00A4
ENCODING 164
SWIDTH 570 0
DWIDTH 19 0
BBX 15 16 2 3
BITMAP
4000
C006
EFEE
7FFC
3838
701C
600C
600C
600C
600C
700C
301C
3C78
7FFC
E7CE
4004
ENDCHAR
STARTCHAR 00A5
ENCODING 165
SWIDTH 630 0
DWIDTH 21 0
BBX 17 23 2 0
BITMAP
F00380
700780
780700
380F00
3C0E00
1C1E00
1E1C00
0E3C00
0F3800
077000
07F000
03E000
3FFE00
3FFE00
01C000
01C000
3FFE00
3FFE00
01C000
01C000
01C000
01C000
01C000
ENDCHAR
STARTCHAR 00A6
ENCODING 166
SWIDTH 150 0
DWIDTH 5 0
BBX 2 28 2 -4
BITMAP
C0
C0
C0
C0
C0
C0
C0
C0
C0
C0
C0
00
00
00
00
00
00
C0
C0
C0
C0
C0
C0
C0
C0
C0
C0
C0
ENDCHAR
STARTCHAR 00A7
ENCODING 167
SWIDTH 450 0
DWIDTH 15 0
BBX 12 28 2 -4
BITMAP
0600
3FC0
7FE0
79E0
70F0
7060
7000
3C00
1E00
0F80
3FC0
7BE0
E0F0
E070
E070
E070
7DE0
3FC0
1F00
0780
03C0
01E0
60E0
E0E0
71E0
7FE0
3FC0
0F00
ENDCHAR
STARTCHAR 00A8
ENCODING 168
SWIDTH 360 0
DWIDTH 12 0
BBX 12 5 0 25
BITMAP
3060
F8F0
F8F0
F8F0
70F0
ENDCHAR
STARTCHAR 00A9
ENCODING 169
SWIDTH 840 0
DWIDTH 28 0
BBX 24 25 2 -1
BITMAP
007E00
03FFC0
0700F0
1C0038
38001C
30000E
607E06
60FF07
C1C383
C38003
C30003
C30001
C30001
C30001
C30003
C18103
C1E783
60FF06
703C06
30000C
18001C
0E0078
07C1E0
01FF80
000800
ENDCHAR
STARTCHAR 00AB
ENCODING 171
SWIDTH 540 0
DWIDTH 18 0
BBX 15 15 2 3
BITMAP
070E
071C
0E38
1C70
3870
38E0
71C0
E380
F1C0
71C0
38E0
1C70
1E38
0E3C
071C
ENDCHAR
STARTCHAR 00AC
ENCODING 172
SWIDTH 540 0
DWIDTH 18 0
BBX 15 8 2 4
BITMAP
FFFE
FFFE
000E
000E
000E
000E
000E
000E
ENDCHAR
STARTCHAR 00AE
ENCODING 174
SWIDTH 480 0
DWIDTH 16 0
BBX 13 13 2 11
BITMAP
0F80
38E0
6030
CF10
8D98
8C88
9F08
8D88
8D98
CC90
6030
39E0
0F80
ENDCHAR
STARTCHAR 00AF
ENCODING 175
SWIDTH 270 0
DWIDTH 9 0
BBX 9 3 0 26
BITMAP
FF80
FF80
FF80
ENDCHAR
STARTCHAR 00B0
ENCODING 176
SWIDTH 330 0
DWIDTH 11 0
BBX 7 8 2 16
BITMAP
18
7C
C6
82
82
C6
7E
38
ENDCHAR
STARTCHAR 00B1
ENCODING 177
SWIDTH 540 0
DWIDTH 18 0
BBX 15 14 2 3
BITMAP
0380
0380
0380
FFFE
FFFE
FFFE
0380
0380
0380
0380
0000
FFFE
FFFE
FFFE
ENDCHAR
STARTCHAR 00B4
ENCODING 180
SWIDTH 150 0
DWIDTH 5 0
BBX 5 5 0 25
BITMAP
38
30
70
60
C0
ENDCHAR
STARTCHAR 00B6
ENCODING 182
SWIDTH 450 0
DWIDTH 15 0
BBX 12 28 2 -4
BITMAP
0330
1F30
3F30
7F30
FF30
FF30
FF30
FF30
FF30
FF30
7F30
3F30
1F30
0330
0330
0330
0330
0330
0330
0330
0330
0330
0330
0330
0330
0330
0330
0330
ENDCHAR
STARTCHAR 00B7
ENCODING 183
SWIDTH 240 0
DWIDTH 8 0
BBX 5 5 2 6
BITMAP
70
F8
F8
F0
60
ENDCHAR
STARTCHAR 00B8
ENCODING 184
SWIDTH 210 0
DWIDTH 7 0
BBX 7 7 0 -7
BITMAP
18
1C
06
06
46
FE
3C
ENDCHAR
STARTCHAR 00BB
ENCODING 187
SWIDTH 540 0
DWIDTH 18 0
BBX 14 15 2 3
BITMAP
E380
71C0
71E0
38E0
1C70
0E38
0E1C
071C
071C
0E38
1C38
1C70
38E0
71C0
E380
ENDCHAR
STARTCHAR 00BF
ENCODING 191
SWIDTH 420 0
DWIDTH 14 0
BBX 10 24 2 -4
BITMAP
0F00
1F00
1F00
0F00
0400
0000
0000
0E00
0E00
0E00
0E00
0E00
1C00
3C00
3800
7000
E000
E000
E080
E0C0
F1C0
FFC0
7F80
0C00
ENDCHAR
STARTCHAR 00C0
ENCODING 192
SWIDTH 540 0
DWIDTH 18 0
BBX 16 30 2 0
BITMAP
1C00
0C00
0600
0700
0300
0000
0780
1FE0
7FF0
78F8
F038
E038
E03C
E01C
E01C
E01C
E01C
E01C
E01C
E01C
E01C
E01C
E01C
E01C
E01C
E01C
E01C
FFFF
FFFF
FFFF
ENDCHAR
STARTCHAR 00C1
ENCODING 193
SWIDTH 540 0
DWIDTH 18 0
BBX 16 30 2 0
BITMAP
00C0
0180
0380
0300
0600
0000
0780
1FE0
7FF0
78F8
F038
E038
E03C
E01C
E01C
E01C
E01C
E01C
E01C
E01C
E01C
E01C
E01C
E01C
E01C
E01C
E01C
FFFF
FFFF
FFFF
ENDCHAR
STARTCHAR 00C2
ENCODING 194
SWIDTH 540 0
DWIDTH 18 0
BBX 16 30 2 0
BITMAP
0780
0F80
1DC0
18E0
3070
0000
0780
1FE0
7FF0
78F8
F038
E038
E03C
E01C
E01C
E01C
E01C
E01C
E01C
E01C
E01C
E01C
E01C
E01C
E01C
E01C
E01C
FFFF
FFFF
FFFF
ENDCHAR
STARTCHAR 00C3
ENCODING 195
SWIDTH 540 0
DWIDTH 18 0
BBX 16 29 2 0
BITMAP
3FC0
3FC0
0000
0000
0000
0780
1FE0
7FF0
78F8
F038
E038
E03C
E01C
E01C
E01C
E01C
E01C
E01C
E01C
E01C
E01C
E01C
E01C
E01C
E01C
E01C
FFFF
FFFF
FFFF
ENDCHAR
STARTCHAR 00C4
ENCODING 196
SWIDTH 540 0
DWIDTH 18 0
BBX 16 30 2 0
BITMAP
3070
78F8
7CF8
7CF8
3870
0000
0780
1FE0
7FF0
78F8
F038
E038
E03C
E01C
E01C
E01C
E01C
E01C
E01C
E01C
E01C
E01C
E01C
E01C
E01C
E01C
E01C
FFFF
FFFF
FFFF
ENDCHAR
STARTCHAR 00C5
ENCODING 197
SWIDTH 540 0
DWIDTH 18 0
BBX 16 32 2 0
BITMAP
0700
0FC0
18C0
18C0
18C0
0F80
0700
0000
0780
1FE0
7FF0
78F8
F038
E038
E03C
E01C
E01C
E01C
E01C
E01C
E01C
E01C
E01C
E01C
E01C
E01C
E01C
E01C
E01C
FFFF
FFFF
FFFF
ENDCHAR
STARTCHAR 00C7
ENCODING 199
SWIDTH 660 0
DWIDTH 22 0
BBX 21 31 1 -7
BITMAP
007E00
01FFC0
07FFF0
0FC1F8
1F0078
3C0030
780000
780000
700000
F00000
E00000
E00000
E00000
E00000
E00000
F00000
700000
780000
380000
3E0030
1F0078
0FF7F0
03FFE0
01FF80
001800
003800
000C00
000600
008600
00FC00
007800
ENDCHAR
STARTCHAR 00C8
ENCODING 200
SWIDTH 480 0
DWIDTH 16 0
BBX 15 30 1 0
BITMAP
1C00
0E00
0600
0700
0300
0000
0000
3FF0
3FF0
3FF0
3800
3800
3800
3800
3800
3800
3800
FFF8
FFF8
FFF8
3800
3800
3800
3800
3800
3800
3800
3FFE
3FFE
3FFE
ENDCHAR
STARTCHAR 00C9
ENCODING 201
SWIDTH 480 0
DWIDTH 16 0
BBX 15 30 1 0
BITMAP
00C0
01C0
0380
0300
0600
0000
0000
3FF0
3FF0
3FF0
3800
3800
3800
3800
3800
3800
3800
FFF8
FFF8
FFF8
3800
3800
3800
3800
3800
3800
3800
3FFE
3FFE
3FFE
ENDCHAR
STARTCHAR 00CA
ENCODING 202
SWIDTH 480 0
DWIDTH 16 0
BBX 15 30 1 0
BITMAP
0780
0F80
1DC0
18E0
3870
0000
0000
3FF0
3FF0
3FF0
3800
3800
3800
3800
3800
3800
3800
FFF8
FFF8
FFF8
3800
3800
3800
3800
3800
3800
3800
3FFE
3FFE
3FFE
ENDCHAR
STARTCHAR 00CB
ENCODING 203
SWIDTH 480 0
DWIDTH 16 0
BBX 15 30 1 0
BITMAP
3070
78F8
7CF8
7CF8
3870
0000
0000
3FF0
3FF0
3FF0
3800
3800
3800
3800
3800
3800
3800
FFF8
FFF8
FFF8
3800
3800
3800
3800
3800
3800
3800
3FFE
3FFE
3FFE
ENDCHAR
STARTCHAR 00CC
ENCODING 204
SWIDTH 180 0
DWIDTH 6 0
BBX 5 21 0 0
BITMAP
E0
60
70
30
18
00
00
38
38
38
38
38
38
38
38
38
38
38
38
38
38
ENDCHAR
STARTCHAR 00CD
ENCODING 205
SWIDTH 180 0
DWIDTH 6 0
BBX 5 21 2 0
BITMAP
38
30
60
E0
C0
00
00
E0
E0
E0
E0
E0
E0
E0
E0
E0
E0
E0
E0
E0
E0
ENDCHAR
STARTCHAR 00CE
ENCODING 206
SWIDTH 180 0
DWIDTH 6 0
BBX 10 21 -2 0
BITMAP
0E00
1F00
3B80
71C0
E0C0
0000
0000
0E00
0E00
0E00
0E00
0E00
0E00
0E00
0E00
0E00
0E00
0E00
0E00
0E00
0E00
ENDCHAR
STARTCHAR 00CF
ENCODING 207
SWIDTH 180 0
DWIDTH 6 0
BBX 13 21 -3 0
BITMAP
3060
78F0
F8F8
78F8
7070
0000
0000
0700
0700
0700
0700
0700
0700
0700
0700
0700
0700
0700
0700
0700
0700
ENDCHAR
STARTCHAR 00D1
ENCODING 209
SWIDTH 510 0
DWIDTH 17 0
BBX 16 29 0 0
BITMAP
0FF0
0FF0
0000
0000
0000
2000
7007
FC07
3E07
3F07
3F87
3BE7
39F7
38FF
383F
381F
380F
3807
3807
3807
3807
3807
3807
3807
3807
3807
3807
3807
3807
ENDCHAR
STARTCHAR 00D2
ENCODING 210
SWIDTH 810 0
DWIDTH 27 0
BBX 25 31 1 -1
BITMAP
00700000
00300000
00180000
001C0000
000C0000
00000000
003F0000
01FFC000
07FFF000
0FC1F800
1F003C00
3C001E00
38000F00
78000700
70000700
F0000380
E0000380
E0000380
E0000380
E0000380
E0000380
F0000780
70000700
78000F00
3C000E00
3E001E00
1F007C00
0FF7F800
03FFF000
00FFC000
000C0000
ENDCHAR
STARTCHAR 00D3
ENCODING 211
SWIDTH 810 0
DWIDTH 27 0
BBX 25 31 1 -1
BITMAP
00070000
00060000
000E0000
000C0000
00180000
00000000
003F0000
01FFC000
07FFF000
0FC1F800
1F003C00
3C001E00
38000F00
78000700
70000700
F0000380
E0000380
E0000380
E0000380
E0000380
E0000380
F0000780
70000700
78000F00
3C000E00
3E001E00
1F007C00
0FF7F800
03FFF000
00FFC000
000C0000
ENDCHAR
STARTCHAR 00D4
ENCODING 212
SWIDTH 810 0
DWIDTH 27 0
BBX 25 31 1 -1
BITMAP
001C0000
003E0000
00770000
00E38000
00C1C000
00000000
003F0000
01FFC000
07FFF000
0FC1F800
1F003C00
3C001E00
38000F00
78000700
70000700
F0000380
E0000380
E0000380
E0000380
E0000380
E0000380
F0000780
70000700
78000F00
3C000E00
3E001E00
1F007C00
0FF7F800
03FFF000
00FFC000
000C0000
ENDCHAR
STARTCHAR 00D5
ENCODING 213
SWIDTH 810 0
DWIDTH 27 0
BBX 25 30 1 -1
BITMAP
00FF0000
00FF0000
00000000
00000000
00000000
003F0000
01FFC000
07FFF000
0FC1F800
1F003C00
3C001E00
38000F00
78000700
70000700
F0000380
E0000380
E0000380
E0000380
E0000380
E0000380
F0000780
70000700
78000F00
3C000E00
3E001E00
1F007C00
0FF7F800
03FFF000
00FFC000
000C0000
ENDCHAR
STARTCHAR 00D6
ENCODING 214
SWIDTH 810 0
DWIDTH 27 0
BBX 25 31 1 -1
BITMAP
00C1C000
01E3E000
01F3E000
01E3E000
01E1C000
00000000
003F0000
01FFC000
07FFF000
0FC1F800
1F003C00
3C001E00
38000F00
78000700
70000700
F0000380
E0000380
E0000380
E0000380
E0000380
E0000380
F0000780
70000700
78000F00
3C000E00
3E001E00
1F007C00
0FF7F800
03FFF000
00FFC000
000C0000
ENDCHAR
STARTCHAR 00D7
ENCODING 215
SWIDTH 510 0
DWIDTH 17 0
BBX 13 14 2 4
BITMAP
4010
E038
F078
78F0
3DE0
1FC0
0F80
0F80
1FC0
3DE0
78F0
F078
E038
4010
ENDCHAR
STARTCHAR 00D8
ENCODING 216
SWIDTH 780 0
DWIDTH 26 0
BBX 25 25 1 0
BITMAP
007E0600
03FFCE00
07FFFC00
0FC1F800
1E007C00
3C00FE00
7800EE00
7001CF00
F0038700
E0070700
E00E0780
E01C0380
E0380380
E0380780
E0700780
E0E00700
F1C00700
73800F00
7F001E00
3E003C00
1F007C00
1FE7F800
3FFFE000
71FF8000
20000000
ENDCHAR
STARTCHAR 00D9
ENCODING 217
SWIDTH 480 0
DWIDTH 16 0
BBX 15 31 1 -1
BITMAP
0E00
0600
0700
0300
0180
0000
0000
F01E
F01E
F01E
F01E
F01E
F01E
F01E
F01E
F01E
F01E
F01E
F01E
F01E
F01E
F01E
F01E
F01C
701C
701C
783C
3EF8
1FF0
0FE0
0100
ENDCHAR
STARTCHAR 00DA
ENCODING 218
SWIDTH 480 0
DWIDTH 16 0
BBX 15 31 1 -1
BITMAP
00E0
00C0
0180
0180
0300
0000
0000
F01E
F01E
F01E
F01E
F01E
F01E
F01E
F01E
F01E
F01E
F01E
F01E
F01E
F01E
F01E
F01E
F01C
701C
701C
783C
3EF8
1FF0
0FE0
0100
ENDCHAR
STARTCHAR 00DB
ENCODING 219
SWIDTH 480 0
DWIDTH 16 0
BBX 15 31 1 -1
BITMAP
0380
07C0
0EE0
1C70
1830
0000
0000
F01E
F01E
F01E
F01E
F01E
F01E
F01E
F01E
F01E
F01E
F01E
F01E
F01E
F01E
F01E
F01E
F01C
701C
701C
783C
3EF8
1FF0
0FE0
0100
ENDCHAR
STARTCHAR 00DC
ENCODING 220
SWIDTH 480 0
DWIDTH 16 0
BBX 15 31 1 -1
BITMAP
1830
3C7C
7C7C
3C7C
3C38
0000
0000
F01E
F01E
F01E
F01E
F01E
F01E
F01E
F01E
F01E
F01E
F01E
F01E
F01E
F01E
F01E
F01E
F01C
701C
701C
783C
3EF8
1FF0
0FE0
0100
ENDCHAR
STARTCHAR 00DD
ENCODING 221
SWIDTH 480 0
DWIDTH 16 0
BBX 14 30 1 0
BITMAP
00E0
00C0
0180
0380
0300
0000
0000
E01C
E01C
E01C
E01C
E01C
E01C
E01C
E01C
E01C
E01C
E01C
F01C
701C
783C
3EF8
3FF0
0FE0
0380
0380
0380
0380
0380
0380
ENDCHAR
STARTCHAR 00E0
ENCODING 224
SWIDTH 540 0
DWIDTH 18 0
BBX 16 30 2 0
BITMAP
1C00
0C00
0600
0700
0300
0000
0780
1FE0
7FF0
78F8
F038
E038
E03C
E01C
E01C
E01C
E01C
E01C
E01C
E01C
E01C
E01C
E01C
E01C
E01C
E01C
E01C
FFFF
FFFF
FFFF
ENDCHAR
STARTCHAR 00E1
ENCODING 225
SWIDTH 540 0
DWIDTH 18 0
BBX 16 30 2 0
BITMAP
00C0
0180
0380
0300
0600
0000
0780
1FE0
7FF0
78F8
F038
E038
E03C
E01C
E01C
E01C
E01C
E01C
E01C
E01C
E01C
E01C
E01C
E01C
E01C
E01C
E01C
FFFF
FFFF
FFFF
ENDCHAR
STARTCHAR 00E2
ENCODING 226
SWIDTH 540 0
DWIDTH 18 0
BBX 16 30 2 0
BITMAP
0780
0F80
1DC0
18E0
3070
0000
0780
1FE0
7FF0
78F8
F038
E038
E03C
E01C
E01C
E01C
E01C
E01C
E01C
E01C
E01C
E01C
E01C
E01C
E01C
E01C
E01C
FFFF
FFFF
FFFF
ENDCHAR
STARTCHAR 00E3
ENCODING 227
SWIDTH 540 0
DWIDTH 18 0
BBX 16 29 2 0
BITMAP
3FC0
3FC0
0000
0000
0000
0780
1FE0
7FF0
78F8
F038
E038
E03C
E01C
E01C
E01C
E01C
E01C
E01C
E01C
E01C
E01C
E01C
E01C
E01C
E01C
E01C
FFFF
FFFF
FFFF
ENDCHAR
STARTCHAR 00E4
ENCODING 228
SWIDTH 540 0
DWIDTH 18 0
BBX 16 30 2 0
BITMAP
3070
78F8
7CF8
7CF8
3870
0000
0780
1FE0
7FF0
78F8
F038
E038
E03C
E01C
E01C
E01C
E01C
E01C
E01C
E01C
E01C
E01C
E01C
E01C
E01C
E01C
E01C
FFFF
FFFF
FFFF
ENDCHAR
STARTCHAR 00E5
ENCODING 229
SWIDTH 540 0
DWIDTH 18 0
BBX 16 32 2 0
BITMAP
0700
0FC0
18C0
18C0
18C0
0F80
0700
0000
0780
1FE0
7FF0
78F8
F038
E038
E03C
E01C
E01C
E01C
E01C
E01C
E01C
E01C
E01C
E01C
E01C
E01C
E01C
E01C
E01C
FFFF
FFFF
FFFF
ENDCHAR
STARTCHAR 00E7
ENCODING 231
SWIDTH 660 0
DWIDTH 22 0
BBX 21 31 1 -7
BITMAP
007E00
01FFC0
07FFF0
0FC1F8
1F0078
3C0030
780000
780000
700000
F00000
E00000
E00000
E00000
E00000
E00000
F00000
700000
780000
380000
3E0030
1F0078
0FF7F0
03FFE0
01FF80
001800
003800
000C00
000600
008600
00FC00
007800
ENDCHAR
STARTCHAR 00E8
ENCODING 232
SWIDTH 480 0
DWIDTH 16 0
BBX 15 30 1 0
BITMAP
1C00
0E00
0600
0700
0300
0000
0000
3FF0
3FF0
3FF0
3800
3800
3800
3800
3800
3800
3800
FFF8
FFF8
FFF8
3800
3800
3800
3800
3800
3800
3800
3FFE
3FFE
3FFE
ENDCHAR
STARTCHAR 00E9
ENCODING 233
SWIDTH 480 0
DWIDTH 16 0
BBX 15 30 1 0
BITMAP
00C0
01C0
0380
0300
0600
0000
0000
3FF0
3FF0
3FF0
3800
3800
3800
3800
3800
3800
3800
FFF8
FFF8
FFF8
3800
3800
3800
3800
3800
3800
3800
3FFE
3FFE
3FFE
ENDCHAR
STARTCHAR 00EA
ENCODING 234
SWIDTH 480 0
DWIDTH 16 0
BBX 15 30 1 0
BITMAP
0780
0F80
1DC0
18E0
3870
0000
0000
3FF0
3FF0
3FF0
3800
3800
3800
3800
3800
3800
3800
FFF8
FFF8
FFF8
3800
3800
3800
3800
3800
3800
3800
3FFE
3FFE
3FFE
ENDCHAR
STARTCHAR 00EB
ENCODING 235
SWIDTH 480 0
DWIDTH 16 0
BBX 15 30 1 0
BITMAP
3070
78F8
7CF8
7CF8
3870
0000
0000
3FF0
3FF0
3FF0
3800
3800
3800
3800
3800
3800
3800
FFF8
FFF8
FFF8
3800
3800
3800
3800
3800
3800
3800
3FFE
3FFE
3FFE
ENDCHAR
STARTCHAR 00EC
ENCODING 236
SWIDTH 180 0
DWIDTH 6 0
BBX 5 21 0 0
BITMAP
E0
60
70
30
18
00
00
38
38
38
38
38
38
38
38
38
38
38
38
38
38
ENDCHAR
STARTCHAR 00ED
ENCODING 237
SWIDTH 180 0
DWIDTH 6 0
BBX 5 21 2 0
BITMAP
38
30
60
E0
C0
00
00
E0
E0
E0
E0
E0
E0
E0
E0
E0
E0
E0
E0
E0
E0
ENDCHAR
STARTCHAR 00EE
ENCODING 238
SWIDTH 180 0
DWIDTH 6 0
BBX 10 21 -2 0
BITMAP
0E00
1F00
3B80
71C0
E0C0
0000
0000
0E00
0E00
0E00
0E00
0E00
0E00
0E00
0E00
0E00
0E00
0E00
0E00
0E00
0E00
ENDCHAR
STARTCHAR 00EF
ENCODING 239
SWIDTH 180 0
DWIDTH 6 0
BBX 13 21 -3 0
BITMAP
3060
78F0
F8F8
78F8
7070
0000
0000
0700
0700
0700
0700
0700
0700
0700
0700
0700
0700
0700
0700
0700
0700
ENDCHAR
STARTCHAR 00F1
ENCODING 241
SWIDTH 510 0
DWIDTH 17 0
BBX 16 29 0 0
BITMAP
0FF0
0FF0
0000
0000
0000
2000
7007
FC07
3E07
3F07
3F87
3BE7
39F7
38FF
383F
381F
380F
3807
3807
3807
3807
3807
3807
3807
3807
3807
3807
3807
3807
ENDCHAR
STARTCHAR 00F2
ENCODING 242
SWIDTH 810 0
DWIDTH 27 0
BBX 25 31 1 -1
BITMAP
00700000
00300000
00180000
001C0000
000C0000
00000000
003F0000
01FFC000
07FFF000
0FC1F800
1F003C00
3C001E00
38000F00
78000700
70000700
F0000380
E0000380
E0000380
E0000380
E0000380
E0000380
F0000780
70000700
78000F00
3C000E00
3E001E00
1F007C00
0FF7F800
03FFF000
00FFC000
000C0000
ENDCHAR
STARTCHAR 00F3
ENCODING 243
SWIDTH 810 0
DWIDTH 27 0
BBX 25 31 1 -1
BITMAP
00070000
00060000
000E0000
000C0000
00180000
00000000
003F0000
01FFC000
07FFF000
0FC1F800
1F003C00
3C001E00
38000F00
78000700
70000700
F0000380
E0000380
E0000380
E0000380
E0000380
E0000380
F0000780
70000700
78000F00
3C000E00
3E001E00
1F007C00
0FF7F800
03FFF000
00FFC000
000C0000
ENDCHAR
STARTCHAR 00F4
ENCODING 244
SWIDTH 810 0
DWIDTH 27 0
BBX 25 31 1 -1
BITMAP
001C0000
003E0000
00770000
00E38000
00C1C000
00000000
003F0000
01FFC000
07FFF000
0FC1F800
1F003C00
3C001E00
38000F00
78000700
70000700
F0000380
E0000380
E0000380
E0000380
E0000380
E0000380
F0000780
70000700
78000F00
3C000E00
3E001E00
1F007C00
0FF7F800
03FFF000
00FFC000
000C0000
ENDCHAR
STARTCHAR 00F5
ENCODING 245
SWIDTH 810 0
DWIDTH 27 0
BBX 25 30 1 -1
BITMAP
00FF0000
00FF0000
00000000
00000000
00000000
003F0000
01FFC000
07FFF000
0FC1F800
1F003C00
3C001E00
38000F00
78000700
70000700
F0000380
E0000380
E0000380
E0000380
E0000380
E0000380
F0000780
70000700
78000F00
3C000E00
3E001E00
1F007C00
0FF7F800
03FFF000
00FFC000
000C0000
ENDCHAR
STARTCHAR 00F6
ENCODING 246
SWIDTH 810 0
DWIDTH 27 0
BBX 25 31 1 -1
BITMAP
00C1C000
01E3E000
01F3E000
01E3E000
01E1C000
00000000
003F0000
01FFC000
07FFF000
0FC1F800
1F003C00
3C001E00
38000F00
78000700
70000700
F0000380
E0000380
E0000380
E0000380
E0000380
E0000380
F0000780
70000700
78000F00
3C000E00
3E001E00
1F007C00
0FF7F800
03FFF000
00FFC000
000C0000
ENDCHAR
STARTCHAR 00F7
ENCODING 247
SWIDTH 540 0
DWIDTH 18 0
BBX 15 15 2 3
BITMAP
0380
0780
0780
0380
0000
0000
FFFE
FFFE
FFFE
0000
0100
0780
0780
0780
0300
ENDCHAR
STARTCHAR 00F8
ENCODING 248
SWIDTH 780 0
DWIDTH 26 0
BBX 25 25 1 0
BITMAP
007E0600
03FFCE00
07FFFC00
0FC1F800
1E007C00
3C00FE00
7800EE00
7001CF00
F0038700
E0070700
E00E0780
E01C0380
E0380380
E0380780
E0700780
E0E00700
F1C00700
73800F00
7F001E00
3E003C00
1F007C00
1FE7F800
3FFFE000
71FF8000
20000000
ENDCHAR
STARTCHAR 00F9
ENCODING 249
SWIDTH 480 0
DWIDTH 16 0
BBX 15 31 1 -1
BITMAP
0E00
0600
0700
0300
0180
0000
0000
F01E
F01E
F01E
F01E
F01E
F01E
F01E
F01E
F01E
F01E
F01E
F01E
F01E
F01E
F01E
F01E
F01C
701C
701C
783C
3EF8
1FF0
0FE0
0100
ENDCHAR
STARTCHAR 00FA
ENCODING 250
SWIDTH 480 0
DWIDTH 16 0
BBX 15 31 1 -1
BITMAP
00E0
00C0
0180
0180
0300
0000
0000
F01E
F01E
F01E
F01E
F01E
F01E
F01E
F01E
F01E
F01E
F01E
F01E
F01E
F01E
F01E
F01E
F01C
701C
701C
783C
3EF8
1FF0
0FE0
0100
ENDCHAR
STARTCHAR 00FB
ENCODING 251
SWIDTH 480 0
DWIDTH 16 0
BBX 15 31 1 -1
BITMAP
0380
07C0
0EE0
1C70
1830
0000
0000
F01E
F01E
F01E
F01E
F01E
F01E
F01E
F01E
F01E
F01E
F01E
F01E
F01E
F01E
F01E
F01E
F01C
701C
701C
783C
3EF8
1FF0
0FE0
0100
ENDCHAR
STARTCHAR 00FC
ENCODING 252
SWIDTH 480 0
DWIDTH 16 0
BBX 15 31 1 -1
BITMAP
1830
3C7C
7C7C
3C7C
3C38
0000
0000
F01E
F01E
F01E
F01E
F01E
F01E
F01E
F01E
F01E
F01E
F01E
F01E
F01E
F01E
F01E
F01E
F01C
701C
701C
783C
3EF8
1FF0
0FE0
0100
ENDCHAR
STARTCHAR 00FD
ENCODING 253
SWIDTH 480 0
DWIDTH 16 0
BBX 14 30 1 0
BITMAP
00E0
00C0
0180
0380
0300
0000
0000
E01C
E01C
E01C
E01C
E01C
E01C
E01C
E01C
E01C
E01C
E01C
F01C
701C
783C
3EF8
3FF0
0FE0
0380
0380
0380
0380
0380
0380
ENDCHAR
STARTCHAR 00FF
ENCODING 255
SWIDTH 480 0
DWIDTH 16 0
BBX 14 30 1 0
BITMAP
1830
3C78
7C7C
7C78
3838
0000
0000
E01C
E01C
E01C
E01C
E01C
E01C
E01C
E01C
E01C
E01C
E01C
F01C
701C
783C
3EF8
3FF0
0FE0
0380
0380
0380
0380
0380
0380
ENDCHAR
STARTCHAR 0100
ENCODING 256
SWIDTH 540 0
DWIDTH 18 0
BBX 16 29 2 0
BITMAP
3FE0
3FE0
3FE0
0000
0000
0780
1FE0
7FF0
78F8
F038
E038
E03C
E01C
E01C
E01C
E01C
E01C
E01C
E01C
E01C
E01C
E01C
E01C
E01C
E01C
E01C
FFFF
FFFF
FFFF
ENDCHAR
STARTCHAR 0101
ENCODING 257
SWIDTH 540 0
DWIDTH 18 0
BBX 16 29 2 0
BITMAP
3FE0
3FE0
3FE0
0000
0000
0780
1FE0
7FF0
78F8
F038
E038
E03C
E01C
E01C
E01C
E01C
E01C
E01C
E01C
E01C
E01C
E01C
E01C
E01C
E01C
E01C
FFFF
FFFF
FFFF
ENDCHAR
STARTCHAR 0102
ENCODING 258
SWIDTH 540 0
DWIDTH 18 0
BBX 16 30 2 0
BITMAP
3060
3860
18E0
0FC0
0300
0000
0780
1FE0
7FF0
78F8
F038
E038
E03C
E01C
E01C
E01C
E01C
E01C
E01C
E01C
E01C
E01C
E01C
E01C
E01C
E01C
E01C
FFFF
FFFF
FFFF
ENDCHAR
STARTCHAR 0103
ENCODING 259
SWIDTH 540 0
DWIDTH 18 0
BBX 16 30 2 0
BITMAP
3060
3860
18E0
0FC0
0300
0000
0780
1FE0
7FF0
78F8
F038
E038
E03C
E01C
E01C
E01C
E01C
E01C
E01C
E01C
E01C
E01C
E01C
E01C
E01C
E01C
E01C
FFFF
FFFF
FFFF
ENDCHAR
STARTCHAR 0104
ENCODING 260
SWIDTH 540 0
DWIDTH 18 0
BBX 17 30 2 -6
BITMAP
078000
1FE000
7FF000
78F800
F03800
E03800
E03C00
E01C00
E01C00
E01C00
E01C00
E01C00
E01C00
E01C00
E01C00
E01C00
E01C00
E01C00
E01C00
E01C00
E01C00
FFFF00
FFFF00
FFFF00
000C00
001800
001800
001800
001F80
000F00
ENDCHAR
STARTCHAR 0105
ENCODING 261
SWIDTH 540 0
DWIDTH 18 0
BBX 17 30 2 -6
BITMAP
078000
1FE000
7FF000
78F800
F03800
E03800
E03C00
E01C00
E01C00
E01C00
E01C00
E01C00
E01C00
E01C00
E01C00
E01C00
E01C00
E01C00
E01C00
E01C00
E01C00
FFFF00
FFFF00
FFFF00
000C00
001800
001800
001800
001F80
000F00
ENDCHAR
STARTCHAR 0106
ENCODING 262
SWIDTH 660 0
DWIDTH 22 0
BBX 21 31 1 -1
BITMAP
000700
000600
000C00
001C00
001800
000000
007E00
01FFC0
07FFF0
0FC1F8
1F0078
3C0030
780000
780000
700000
F00000
E00000
E00000
E00000
E00000
E00000
F00000
700000
780000
380000
3E0030
1F0078
0FF7F0
03FFE0
01FF80
000800
ENDCHAR
STARTCHAR 0107
ENCODING 263
SWIDTH 660 0
DWIDTH 22 0
BBX 21 31 1 -1
BITMAP
000700
000600
000C00
001C00
001800
000000
007E00
01FFC0
07FFF0
0FC1F8
1F0078
3C0030
780000
780000
700000
F00000
E00000
E00000
E00000
E00000
E00000
F00000
700000
780000
380000
3E0030
1F0078
0FF7F0
03FFE0
01FF80
000800
ENDCHAR
STARTCHAR 010A
ENCODING 266
SWIDTH 660 0
DWIDTH 22 0
BBX 21 32 1 -1
BITMAP
000800
003E00
003E00
003E00
001C00
000000
000000
007E00
01FFC0
07FFF0
0FC1F8
1F0078
3C0030
780000
780000
700000
F00000
E00000
E00000
E00000
E00000
E00000
F00000
700000
780000
380000
3E0030
1F0078
0FF7F0
03FFE0
01FF80
000800
ENDCHAR
STARTCHAR 010B
ENCODING 267
SWIDTH 660 0
DWIDTH 22 0
BBX 21 32 1 -1
BITMAP
000800
003E00
003E00
003E00
001C00
000000
000000
007E00
01FFC0
07FFF0
0FC1F8
1F0078
3C0030
780000
780000
700000
F00000
E00000
E00000
E00000
E00000
E00000
F00000
700000
780000
380000
3E0030
1F0078
0FF7F0
03FFE0
01FF80
000800
ENDCHAR
STARTCHAR 010C
ENCODING 268
SWIDTH 660 0
DWIDTH 22 0
BBX 21 31 1 -1
BITMAP
00C380
006700
007600
003E00
000000
000000
007E00
01FFC0
07FFF0
0FC1F8
1F0078
3C0030
780000
780000
700000
F00000
E00000
E00000
E00000
E00000
E00000
F00000
700000
780000
380000
3E0030
1F0078
0FF7F0
03FFE0
01FF80
000800
ENDCHAR
STARTCHAR 010D
ENCODING 269
SWIDTH 660 0
DWIDTH 22 0
BBX 21 31 1 -1
BITMAP
00C380
006700
007600
003E00
000000
000000
007E00
01FFC0
07FFF0
0FC1F8
1F0078
3C0030
780000
780000
700000
F00000
E00000
E00000
E00000
E00000
E00000
F00000
700000
780000
380000
3E0030
1F0078
0FF7F0
03FFE0
01FF80
000800
ENDCHAR
STARTCHAR 010E
ENCODING 270
SWIDTH 630 0
DWIDTH 21 0
BBX 19 30 2 0
BITMAP
387000
1CE000
0FC000
078000
000000
000000
000000
FFE000
FFF800
FFFE00
E01F00
E00F80
E00780
E003C0
E001C0
E001C0
E001C0
E001E0
E001E0
E001E0
E001C0
E001C0
E003C0
E003C0
E00780
E00F00
E03F00
FFFC00
FFF800
FFC000
ENDCHAR
STARTCHAR 010F
ENCODING 271
SWIDTH 630 0
DWIDTH 21 0
BBX 19 30 2 0
BITMAP
387000
1CE000
0FC000
078000
000000
000000
000000
FFE000
FFF800
FFFE00
E01F00
E00F80
E00780
E003C0
E001C0
E001C0
E001C0
E001E0
E001E0
E001E0
E001C0
E001C0
E003C0
E003C0
E00780
E00F00
E03F00
FFFC00
FFF800
FFC000
ENDCHAR
STARTCHAR 0110
ENCODING 272
SWIDTH 660 0
DWIDTH 22 0
BBX 21 23 1 0
BITMAP
3FF800
3FFF00
3FFF80
3807C0
3801E0
3800E0
3800F0
380070
380070
380078
FFE038
FFE038
FFE038
380078
380070
380070
3800F0
3801E0
3803E0
380FC0
3FFF80
3FFE00
3FF000
ENDCHAR
STARTCHAR 0111
ENCODING 273
SWIDTH 660 0
DWIDTH 22 0
BBX 21 23 1 0
BITMAP
3FF800
3FFF00
3FFF80
3807C0
3801E0
3800E0
3800F0
380070
380070
380078
FFE038
FFE038
FFE038
380078
380070
380070
3800F0
3801E0
3803E0
380FC0
3FFF80
3FFE00
3FF000
ENDCHAR
STARTCHAR 0112
ENCODING 274
SWIDTH 480 0
DWIDTH 16 0
BBX 15 29 1 0
BITMAP
3FE0
3FE0
3FE0
0000
0000
0000
3FF0
3FF0
3FF0
3800
3800
3800
3800
3800
3800
3800
FFF8
FFF8
FFF8
3800
3800
3800
3800
3800
3800
3800
3FFE
3FFE
3FFE
ENDCHAR
STARTCHAR 0113
ENCODING 275
SWIDTH 480 0
DWIDTH 16 0
BBX 15 29 1 0
BITMAP
3FE0
3FE0
3FE0
0000
0000
0000
3FF0
3FF0
3FF0
3800
3800
3800
3800
3800
3800
3800
FFF8
FFF8
FFF8
3800
3800
3800
3800
3800
3800
3800
3FFE
3FFE
3FFE
ENDCHAR
STARTCHAR 0116
ENCODING 278
SWIDTH 480 0
DWIDTH 16 0
BBX 15 30 1 1
BITMAP
0780
0F80
0780
0780
0000
0000
0000
3FF0
3FF0
3FF0
3800
3800
3800
3800
3800
3800
3800
FFF8
FFF8
FFF8
3800
3800
3800
3800
3800
3800
3800
3FFE
3FFE
3FFE
ENDCHAR
STARTCHAR 0117
ENCODING 279
SWIDTH 480 0
DWIDTH 16 0
BBX 15 30 1 1
BITMAP
0780
0F80
0780
0780
0000
0000
0000
3FF0
3FF0
3FF0
3800
3800
3800
3800
3800
3800
3800
FFF8
FFF8
FFF8
3800
3800
3800
3800
3800
3800
3800
3FFE
3FFE
3FFE
ENDCHAR
STARTCHAR 0118
ENCODING 280
SWIDTH 480 0
DWIDTH 16 0
BBX 17 29 1 -6
BITMAP
3FF000
3FF000
3FF000
380000
380000
380000
380000
380000
380000
380000
FFF800
FFF800
FFF800
380000
380000
380000
380000
380000
380000
380000
3FFE00
3FFE00
3FFE00
000C00
001800
003000
003100
003B80
001F00
ENDCHAR
STARTCHAR 0119
ENCODING 281
SWIDTH 480 0
DWIDTH 16 0
BBX 17 29 1 -6
BITMAP
3FF000
3FF000
3FF000
380000
380000
380000
380000
380000
380000
380000
FFF800
FFF800
FFF800
380000
380000
380000
380000
380000
380000
380000
3FFE00
3FFE00
3FFE00
000C00
001800
003000
003100
003B80
001F00
ENDCHAR
STARTCHAR 011A
ENCODING 282
SWIDTH 480 0
DWIDTH 16 0
BBX 15 30 1 0
BITMAP
3860
1CE0
0FC0
0F80
0000
0000
0000
3FF0
3FF0
3FF0
3800
3800
3800
3800
3800
3800
3800
FFF8
FFF8
FFF8
3800
3800
3800
3800
3800
3800
3800
3FFE
3FFE
3FFE
ENDCHAR
STARTCHAR 011B
ENCODING 283
SWIDTH 480 0
DWIDTH 16 0
BBX 15 30 1 0
BITMAP
3860
1CE0
0FC0
0F80
0000
0000
0000
3FF0
3FF0
3FF0
3800
3800
3800
3800
3800
3800
3800
FFF8
FFF8
FFF8
3800
3800
3800
3800
3800
3800
3800
3FFE
3FFE
3FFE
ENDCHAR
STARTCHAR 011E
ENCODING 286
SWIDTH 810 0
DWIDTH 27 0
BBX 27 31 1 -1
BITMAP
00C18000
00C18000
00E30000
007E0000
00180000
00000000
003E0000
01FFC000
07FFF000
0FC1F800
1F007800
3C003000
38000000
78000000
70000000
F0000000
E0000000
E00FFFE0
E00FFFE0
E00FFFE0
E0000700
F0000700
70000F00
78000E00
3C001E00
3E003C00
1F007C00
0FF7F800
03FFE000
00FF8000
00080000
ENDCHAR
STARTCHAR 011F
ENCODING 287
SWIDTH 810 0
DWIDTH 27 0
BBX 27 31 1 -1
BITMAP
00C18000
00C18000
00E30000
007E0000
00180000
00000000
003E0000
01FFC000
07FFF000
0FC1F800
1F007800
3C003000
38000000
78000000
70000000
F0000000
E0000000
E00FFFE0
E00FFFE0
E00FFFE0
E0000700
F0000700
70000F00
78000E00
3C001E00
3E003C00
1F007C00
0FF7F800
03FFE000
00FF8000
00080000
ENDCHAR
STARTCHAR 0120
ENCODING 288
SWIDTH 810 0
DWIDTH 27 0
BBX 27 32 1 -1
BITMAP
00080000
003E0000
003E0000
003E0000
001C0000
00000000
00000000
003E0000
01FFC000
07FFF000
0FC1F800
1F007800
3C003000
38000000
78000000
70000000
F0000000
E0000000
E00FFFE0
E00FFFE0
E00FFFE0
E0000700
F0000700
70000F00
78000E00
3C001E00
3E003C00
1F007C00
0FF7F800
03FFE000
00FF8000
00080000
ENDCHAR
STARTCHAR 0121
ENCODING 289
SWIDTH 810 0
DWIDTH 27 0
BBX 27 32 1 -1
BITMAP
00080000
003E0000
003E0000
003E0000
001C0000
00000000
00000000
003E0000
01FFC000
07FFF000
0FC1F800
1F007800
3C003000
38000000
78000000
70000000
F0000000
E0000000
E00FFFE0
E00FFFE0
E00FFFE0
E0000700
F0000700
70000F00
78000E00
3C001E00
3E003C00
1F007C00
0FF7F800
03FFE000
00FF8000
00080000
ENDCHAR
STARTCHAR 0124
ENCODING 292
SWIDTH 540 0
DWIDTH 18 0
BBX 16 30 1 0
BITMAP
01E0
03F0
0330
0738
0E1C
0000
0000
3807
3807
3807
3807
3807
3807
3807
3807
3807
FFFF
FFFF
FFFF
3807
3807
3807
3807
3807
3807
3807
3807
3807
3807
3807
ENDCHAR
STARTCHAR 0125
ENCODING 293
SWIDTH 540 0
DWIDTH 18 0
BBX 16 30 1 0
BITMAP
01E0
03F0
0330
0738
0E1C
0000
0000
3807
3807
3807
3807
3807
3807
3807
3807
3807
FFFF
FFFF
FFFF
3807
3807
3807
3807
3807
3807
3807
3807
3807
3807
3807
ENDCHAR
STARTCHAR 0128
ENCODING 296
SWIDTH 180 0
DWIDTH 6 0
BBX 8 20 -1 0
BITMAP
FF
FF
00
00
00
00
1C
1C
1C
1C
1C
1C
1C
1C
1C
1C
1C
1C
1C
1C
ENDCHAR
STARTCHAR 0129
ENCODING 297
SWIDTH 180 0
DWIDTH 6 0
BBX 8 20 -1 0
BITMAP
FF
FF
00
00
00
00
1C
1C
1C
1C
1C
1C
1C
1C
1C
1C
1C
1C
1C
1C
ENDCHAR
STARTCHAR 012A
ENCODING 298
SWIDTH 180 0
DWIDTH 6 0
BBX 9 20 -1 0
BITMAP
FF80
FF80
FF80
0000
0000
0000
1C00
1C00
1C00
1C00
1C00
1C00
1C00
1C00
1C00
1C00
1C00
1C00
1C00
1C00
ENDCHAR
STARTCHAR 012B
ENCODING 299
SWIDTH 180 0
DWIDTH 6 0
BBX 9 20 -1 0
BITMAP
FF80
FF80
FF80
0000
0000
0000
1C00
1C00
1C00
1C00
1C00
1C00
1C00
1C00
1C00
1C00
1C00
1C00
1C00
1C00
ENDCHAR
STARTCHAR 012E
ENCODING 302
SWIDTH 180 0
DWIDTH 6 0
BBX 8 32 -1 -5
BITMAP
08
18
18
FF
3C
3C
26
02
00
00
00
00
1C
1C
1C
1C
1C
1C
1C
1C
1C
1C
1C
1C
1C
1C
30
60
40
40
7E
3C
ENDCHAR
STARTCHAR 012F
ENCODING 303
SWIDTH 180 0
DWIDTH 6 0
BBX 8 32 -1 -5
BITMAP
08
18
18
FF
3C
3C
26
02
00
00
00
00
1C
1C
1C
1C
1C
1C
1C
1C
1C
1C
1C
1C
1C
1C
30
60
40
40
7E
3C
ENDCHAR
STARTCHAR 0130
ENCODING 304
SWIDTH 180 0
DWIDTH 6 0
BBX 5 22 1 0
BITMAP
20
F8
F8
F8
70
00
00
00
70
70
70
70
70
70
70
70
70
70
70
70
70
70
ENDCHAR
STARTCHAR 0139
ENCODING 313
SWIDTH 420 0
DWIDTH 14 0
BBX 12 30 2 0
BITMAP
3800
3000
6000
E000
C000
0000
0000
E000
E000
E000
E000
E000
E000
E000
E000
E000
E000
E000
E000
E000
E000
E000
E000
E000
E000
E000
E000
FFF0
FFF0
FFF0
ENDCHAR
STARTCHAR 013A
ENCODING 314
SWIDTH 420 0
DWIDTH 14 0
BBX 12 30 2 0
BITMAP
3800
3000
6000
E000
C000
0000
0000
E000
E000
E000
E000
E000
E000
E000
E000
E000
E000
E000
E000
E000
E000
E000
E000
E000
E000
E000
E000
FFF0
FFF0
FFF0
ENDCHAR
STARTCHAR 013D
ENCODING 317
SWIDTH 420 0
DWIDTH 14 0
BBX 15 30 -1 0
BITMAP
C380
6700
7600
3E00
0000
0000
0000
1C00
1C00
1C00
1C00
1C00
1C00
1C00
1C00
1C00
1C00
1C00
1C00
1C00
1C00
1C00
1C00
1C00
1C00
1C00
1C00
1FFE
1FFE
1FFE
ENDCHAR
STARTCHAR 013E
ENCODING 318
SWIDTH 420 0
DWIDTH 14 0
BBX 15 30 -1 0
BITMAP
C380
6700
7600
3E00
0000
0000
0000
1C00
1C00
1C00
1C00
1C00
1C00
1C00
1C00
1C00
1C00
1C00
1C00
1C00
1C00
1C00
1C00
1C00
1C00
1C00
1C00
1FFE
1FFE
1FFE
ENDCHAR
STARTCHAR 0141
ENCODING 321
SWIDTH 480 0
DWIDTH 16 0
BBX 15 23 1 0
BITMAP
3C00
3C00
3C00
3C00
3C00
3C00
3C00
3C00
3DC0
3FC0
3F00
3C00
FC00
FC00
3C00
3C00
3C00
3C00
3C00
3C00
3FFE
3FFE
3FFE
ENDCHAR
STARTCHAR 0142
ENCODING 322
SWIDTH 480 0
DWIDTH 16 0
BBX 15 23 1 0
BITMAP
3C00
3C00
3C00
3C00
3C00
3C00
3C00
3C00
3DC0
3FC0
3F00
3C00
FC00
FC00
3C00
3C00
3C00
3C00
3C00
3C00
3FFE
3FFE
3FFE
ENDCHAR
STARTCHAR 0143
ENCODING 323
SWIDTH 510 0
DWIDTH 17 0
BBX 16 30 0 0
BITMAP
0030
0060
00E0
00C0
0180
0000
2000
7007
FC07
3E07
3F07
3F87
3BE7
39F7
38FF
383F
381F
380F
3807
3807
3807
3807
3807
3807
3807
3807
3807
3807
3807
3807
ENDCHAR
STARTCHAR 0144
ENCODING 324
SWIDTH 510 0
DWIDTH 17 0
BBX 16 30 0 0
BITMAP
0030
0060
00E0
00C0
0180
0000
2000
7007
FC07
3E07
3F07
3F87
3BE7
39F7
38FF
383F
381F
380F
3807
3807
3807
3807
3807
3807
3807
3807
3807
3807
3807
3807
ENDCHAR
STARTCHAR 0147
ENCODING 327
SWIDTH 510 0
DWIDTH 17 0
BBX 16 30 0 0
BITMAP
0E18
0738
0370
03E0
0000
0000
2000
7007
FC07
3E07
3F07
3F87
3BE7
39F7
38FF
383F
381F
380F
3807
3807
3807
3807
3807
3807
3807
3807
3807
3807
3807
3807
ENDCHAR
STARTCHAR 0148
ENCODING 328
SWIDTH 510 0
DWIDTH 17 0
BBX 16 30 0 0
BITMAP
0E18
0738
0370
03E0
0000
0000
2000
7007
FC07
3E07
3F07
3F87
3BE7
39F7
38FF
383F
381F
380F
3807
3807
3807
3807
3807
3807
3807
3807
3807
3807
3807
3807
ENDCHAR
STARTCHAR 014C
ENCODING 332
SWIDTH 810 0
DWIDTH 27 0
BBX 25 30 1 -1
BITMAP
00FF8000
00FF8000
00FF8000
00000000
00000000
003F0000
01FFC000
07FFF000
0FC1F800
1F003C00
3C001E00
38000F00
78000700
70000700
F0000380
E0000380
E0000380
E0000380
E0000380
E0000380
F0000780
70000700
78000F00
3C000E00
3E001E00
1F007C00
0FF7F800
03FFF000
00FFC000
000C0000
ENDCHAR
STARTCHAR 014D
ENCODING 333
SWIDTH 810 0
DWIDTH 27 0
BBX 25 30 1 -1
BITMAP
00FF8000
00FF8000
00FF8000
00000000
00000000
003F0000
01FFC000
07FFF000
0FC1F800
1F003C00
3C001E00
38000F00
78000700
70000700
F0000380
E0000380
E0000380
E0000380
E0000380
E0000380
F0000780
70000700
78000F00
3C000E00
3E001E00
1F007C00
0FF7F800
03FFF000
00FFC000
000C0000
ENDCHAR
STARTCHAR 0150
ENCODING 336
SWIDTH 810 0
DWIDTH 27 0
BBX 25 31 1 -1
BITMAP
0018E000
0038C000
0031C000
00618000
00C30000
00000000
003F0000
01FFC000
07FFF000
0FC1F800
1F003C00
3C001E00
38000F00
78000700
70000700
F0000380
E0000380
E0000380
E0000380
E0000380
E0000380
F0000780
70000700
78000F00
3C000E00
3E001E00
1F007C00
0FF7F800
03FFF000
00FFC000
000C0000
ENDCHAR
STARTCHAR 0151
ENCODING 337
SWIDTH 810 0
DWIDTH 27 0
BBX 25 31 1 -1
BITMAP
0018E000
0038C000
0031C000
00618000
00C30000
00000000
003F0000
01FFC000
07FFF000
0FC1F800
1F003C00
3C001E00
38000F00
78000700
70000700
F0000380
E0000380
E0000380
E0000380
E0000380
E0000380
F0000780
70000700
78000F00
3C000E00
3E001E00
1F007C00
0FF7F800
03FFF000
00FFC000
000C0000
ENDCHAR
STARTCHAR 0154
ENCODING 340
SWIDTH 570 0
DWIDTH 19 0
BBX 17 30 1 0
BITMAP
007000
006000
00E000
00C000
018000
000000
000000
3FF800
3FFE00
3FFF00
380780
380380
380380
380380
380380
380380
380780
381F00
FFFF00
FFFC00
FFFC00
381E00
380F00
380700
380700
380700
380700
380700
380700
380700
ENDCHAR
STARTCHAR 0155
ENCODING 341
SWIDTH 570 0
DWIDTH 19 0
BBX 17 30 1 0
BITMAP
007000
006000
00E000
00C000
018000
000000
000000
3FF800
3FFE00
3FFF00
380780
380380
380380
380380
380380
380380
380780
381F00
FFFF00
FFFC00
FFFC00
381E00
380F00
380700
380700
380700
380700
380700
380700
380700
ENDCHAR
STARTCHAR 0158
ENCODING 344
SWIDTH 570 0
DWIDTH 19 0
BBX 17 30 1 0
BITMAP
0E1800
073000
037000
03E000
000000
000000
000000
3FF800
3FFE00
3FFF00
380780
380380
380380
380380
380380
380380
380780
381F00
FFFF00
FFFC00
FFFC00
381E00
380F00
380700
380700
380700
380700
380700
380700
380700
ENDCHAR
STARTCHAR 0159
ENCODING 345
SWIDTH 570 0
DWIDTH 19 0
BBX 17 30 1 0
BITMAP
0E1800
073000
037000
03E000
000000
000000
000000
3FF800
3FFE00
3FFF00
380780
380380
380380
380380
380380
380380
380780
381F00
FFFF00
FFFC00
FFFC00
381E00
380F00
380700
380700
380700
380700
380700
380700
380700
ENDCHAR
STARTCHAR 015A
ENCODING 346
SWIDTH 480 0
DWIDTH 16 0
BBX 14 31 1 -1
BITMAP
00E0
01C0
0180
0300
0300
0000
0780
1FF0
3FF8
7C78
783C
701C
7010
7800
3800
3E00
1F80
0FC0
03F0
00F8
007C
003C
001C
201C
E01C
F01C
783C
7EFC
3FF8
1FF0
0100
ENDCHAR
STARTCHAR 015B
ENCODING 347
SWIDTH 480 0
DWIDTH 16 0
BBX 14 31 1 -1
BITMAP
00E0
01C0
0180
0300
0300
0000
0780
1FF0
3FF8
7C78
783C
701C
7010
7800
3800
3E00
1F80
0FC0
03F0
00F8
007C
003C
001C
201C
E01C
F01C
783C
7EFC
3FF8
1FF0
0100
ENDCHAR
STARTCHAR 015E
ENCODING 350
SWIDTH 480 0
DWIDTH 16 0
BBX 14 31 1 -7
BITMAP
0780
1FF0
3FF8
7C78
783C
701C
7010
7800
3800
3E00
1F80
0FC0
03F0
00F8
007C
003C
001C
201C
E01C
F01C
783C
7EFC
3FF8
0FF0
0300
0380
00C0
0040
08C0
1FC0
0780
ENDCHAR
STARTCHAR 015F
ENCODING 351
SWIDTH 480 0
DWIDTH 16 0
BBX 14 31 1 -7
BITMAP
0780
1FF0
3FF8
7C78
783C
701C
7010
7800
3800
3E00
1F80
0FC0
03F0
00F8
007C
003C
001C
201C
E01C
F01C
783C
7EFC
3FF8
0FF0
0300
0380
00C0
0040
08C0
1FC0
0780
ENDCHAR
STARTCHAR 0160
ENCODING 352
SWIDTH 480 0
DWIDTH 16 0
BBX 14 31 1 -1
BITMAP
1870
1CE0
0FC0
0780
0000
0000
0780
1FF0
3FF8
7C78
783C
701C
7010
7800
3800
3E00
1F80
0FC0
03F0
00F8
007C
003C
001C
201C
E01C
F01C
783C
7EFC
3FF8
1FF0
0100
ENDCHAR
STARTCHAR 0161
ENCODING 353
SWIDTH 480 0
DWIDTH 16 0
BBX 14 31 1 -1
BITMAP
1870
1CE0
0FC0
0780
0000
0000
0780
1FF0
3FF8
7C78
783C
701C
7010
7800
3800
3E00
1F80
0FC0
03F0
00F8
007C
003C
001C
201C
E01C
F01C
783C
7EFC
3FF8
1FF0
0100
ENDCHAR
STARTCHAR 0162
ENCODING 354
SWIDTH 480 0
DWIDTH 16 0
BBX 15 30 1 -7
BITMAP
FFFE
FFFE
FFFE
0380
0380
0380
0380
0380
0380
0380
0380
0380
0380
0380
0380
0380
0380
0380
0380
0380
0380
0380
0380
0300
0300
01C0
00C0
18C0
1FC0
0F80
ENDCHAR
STARTCHAR 0163
ENCODING 355
SWIDTH 480 0
DWIDTH 16 0
BBX 15 30 1 -7
BITMAP
FFFE
FFFE
FFFE
0380
0380
0380
0380
0380
0380
0380
0380
0380
0380
0380
0380
0380
0380
0380
0380
0380
0380
0380
0380
0300
0300
01C0
00C0
18C0
1FC0
0F80
ENDCHAR
STARTCHAR 0164
ENCODING 356
SWIDTH 480 0
DWIDTH 16 0
BBX 15 30 1 0
BITMAP
1870
0C60
0EC0
07C0
0000
0000
0000
FFFE
FFFE
FFFE
0380
0380
0380
0380
0380
0380
0380
0380
0380
0380
0380
0380
0380
0380
0380
0380
0380
0380
0380
0380
ENDCHAR
STARTCHAR 0165
ENCODING 357
SWIDTH 480 0
DWIDTH 16 0
BBX 15 30 1 0
BITMAP
1870
0C60
0EC0
07C0
0000
0000
0000
FFFE
FFFE
FFFE
0380
0380
0380
0380
0380
0380
0380
0380
0380
0380
0380
0380
0380
0380
0380
0380
0380
0380
0380
0380
ENDCHAR
STARTCHAR 0168
ENCODING 360
SWIDTH 480 0
DWIDTH 16 0
BBX 15 30 1 -1
BITMAP
1FE0
1FE0
0000
0000
0000
0000
F01E
F01E
F01E
F01E
F01E
F01E
F01E
F01E
F01E
F01E
F01E
F01E
F01E
F01E
F01E
F01E
F01C
701C
701C
783C
3EF8
1FF0
0FE0
0100
ENDCHAR
STARTCHAR 0169
ENCODING 361
SWIDTH 480 0
DWIDTH 16 0
BBX 15 30 1 -1
BITMAP
1FE0
1FE0
0000
0000
0000
0000
F01E
F01E
F01E
F01E
F01E
F01E
F01E
F01E
F01E
F01E
F01E
F01E
F01E
F01E
F01E
F01E
F01C
701C
701C
783C
3EF8
1FF0
0FE0
0100
ENDCHAR
STARTCHAR 016A
ENCODING 362
SWIDTH 480 0
DWIDTH 16 0
BBX 15 30 1 -1
BITMAP
1FF0
1FF0
1FF0
0000
0000
0000
F01E
F01E
F01E
F01E
F01E
F01E
F01E
F01E
F01E
F01E
F01E
F01E
F01E
F01E
F01E
F01E
F01C
701C
701C
783C
3EF8
1FF0
0FE0
0100
ENDCHAR
STARTCHAR 016B
ENCODING 363
SWIDTH 480 0
DWIDTH 16 0
BBX 15 30 1 -1
BITMAP
1FF0
1FF0
1FF0
0000
0000
0000
F01E
F01E
F01E
F01E
F01E
F01E
F01E
F01E
F01E
F01E
F01E
F01E
F01E
F01E
F01E
F01E
F01C
701C
701C
783C
3EF8
1FF0
0FE0
0100
ENDCHAR
STARTCHAR 016E
ENCODING 366
SWIDTH 480 0
DWIDTH 16 0
BBX 15 33 1 -1
BITMAP
0380
07C0
0C60
0C60
0C60
07C0
0380
0000
0000
F01E
F01E
F01E
F01E
F01E
F01E
F01E
F01E
F01E
F01E
F01E
F01E
F01E
F01E
F01E
F01E
F01C
701C
701C
783C
3EF8
1FF0
0FE0
0100
ENDCHAR
STARTCHAR 016F
ENCODING 367
SWIDTH 480 0
DWIDTH 16 0
BBX 15 33 1 -1
BITMAP
0380
07C0
0C60
0C60
0C60
07C0
0380
0000
0000
F01E
F01E
F01E
F01E
F01E
F01E
F01E
F01E
F01E
F01E
F01E
F01E
F01E
F01E
F01E
F01E
F01C
701C
701C
783C
3EF8
1FF0
0FE0
0100
ENDCHAR
STARTCHAR 0170
ENCODING 368
SWIDTH 480 0
DWIDTH 16 0
BBX 15 31 1 -1
BITMAP
031C
0718
0E30
0C30
1860
0000
0000
F01E
F01E
F01E
F01E
F01E
F01E
F01E
F01E
F01E
F01E
F01E
F01E
F01E
F01E
F01E
F01E
F01C
701C
701C
783C
3EF8
1FF0
0FE0
0100
ENDCHAR
STARTCHAR 0171
ENCODING 369
SWIDTH 480 0
DWIDTH 16 0
BBX 15 31 1 -1
BITMAP
031C
0718
0E30
0C30
1860
0000
0000
F01E
F01E
F01E
F01E
F01E
F01E
F01E
F01E
F01E
F01E
F01E
F01E
F01E
F01E
F01E
F01E
F01C
701C
701C
783C
3EF8
1FF0
0FE0
0100
ENDCHAR
STARTCHAR 0172
ENCODING 370
SWIDTH 480 0
DWIDTH 16 0
BBX 15 29 1 -6
BITMAP
F01E
F01E
F01E
F01E
F01E
F01E
F01E
F01E
F01E
F01E
F01E
F01E
F01E
F01E
F01E
F01E
F01C
701C
701C
783C
3EF8
1FF0
0FE0
0300
0600
0400
0600
07E0
03C0
ENDCHAR
STARTCHAR 0173
ENCODING 371
SWIDTH 480 0
DWIDTH 16 0
BBX 15 29 1 -6
BITMAP
F01E
F01E
F01E
F01E
F01E
F01E
F01E
F01E
F01E
F01E
F01E
F01E
F01E
F01E
F01E
F01E
F01C
701C
701C
783C
3EF8
1FF0
0FE0
0300
0600
0400
0600
07E0
03C0
ENDCHAR
STARTCHAR 0176
ENCODING 374
SWIDTH 480 0
DWIDTH 16 0
BBX 14 30 1 0
BITMAP
0780
07C0
0EE0
1C60
3830
0000
0000
E01C
E01C
E01C
E01C
E01C
E01C
E01C
E01C
E01C
E01C
E01C
F01C
701C
783C
3EF8
3FF0
0FE0
0380
0380
0380
0380
0380
0380
ENDCHAR
STARTCHAR 0177
ENCODING 375
SWIDTH 480 0
DWIDTH 16 0
BBX 14 30 1 0
BITMAP
0780
07C0
0EE0
1C60
3830
0000
0000
E01C
E01C
E01C
E01C
E01C
E01C
E01C
E01C
E01C
E01C
E01C
F01C
701C
783C
3EF8
3FF0
0FE0
0380
0380
0380
0380
0380
0380
ENDCHAR
STARTCHAR 0178
ENCODING 376
SWIDTH 480 0
DWIDTH 16 0
BBX 14 30 1 0
BITMAP
1830
3C78
7C7C
7C78
3838
0000
0000
E01C
E01C
E01C
E01C
E01C
E01C
E01C
E01C
E01C
E01C
E01C
F01C
701C
783C
3EF8
3FF0
0FE0
0380
0380
0380
0380
0380
0380
ENDCHAR
STARTCHAR 0179
ENCODING 377
SWIDTH 480 0
DWIDTH 16 0
BBX 15 30 1 0
BITMAP
00E0
00C0
01C0
0180
0300
0000
0000
FFFE
FFFE
FFFC
003C
0038
0078
00F0
00E0
01E0
01C0
03C0
0380
0700
0F00
0E00
1E00
3C00
3800
7800
7000
FFFC
FFFC
FFFC
ENDCHAR
STARTCHAR 017A
ENCODING 378
SWIDTH 480 0
DWIDTH 16 0
BBX 15 30 1 0
BITMAP
00E0
00C0
01C0
0180
0300
0000
0000
FFFE
FFFE
FFFC
003C
0038
0078
00F0
00E0
01E0
01C0
03C0
0380
0700
0F00
0E00
1E00
3C00
3800
7800
7000
FFFC
FFFC
FFFC
ENDCHAR
STARTCHAR 017B
ENCODING 379
SWIDTH 480 0
DWIDTH 16 0
BBX 15 31 1 0
BITMAP
0100
03C0
07C0
07C0
03C0
0000
0000
0000
FFFE
FFFE
FFFC
003C
0038
0078
00F0
00E0
01E0
01C0
03C0
0380
0700
0F00
0E00
1E00
3C00
3800
7800
7000
FFFC
FFFC
FFFC
ENDCHAR
STARTCHAR 017C
ENCODING 380
SWIDTH 480 0
DWIDTH 16 0
BBX 15 31 1 0
BITMAP
0100
03C0
07C0
07C0
03C0
0000
0000
0000
FFFE
FFFE
FFFC
003C
0038
0078
00F0
00E0
01E0
01C0
03C0
0380
0700
0F00
0E00
1E00
3C00
3800
7800
7000
FFFC
FFFC
FFFC
ENDCHAR
STARTCHAR 017D
ENCODING 381
SWIDTH 480 0
DWIDTH 16 0
BBX 15 30 1 0
BITMAP
1C30
0C60
0EE0
07C0
0000
0000
0000
FFFE
FFFE
FFFC
003C
0038
0078
00F0
00E0
01E0
01C0
03C0
0380
0700
0F00
0E00
1E00
3C00
3800
7800
7000
FFFC
FFFC
FFFC
ENDCHAR
STARTCHAR 017E
ENCODING 382
SWIDTH 480 0
DWIDTH 16 0
BBX 15 30 1 0
BITMAP
1C30
0C60
0EE0
07C0
0000
0000
0000
FFFE
FFFE
FFFC
003C
0038
0078
00F0
00E0
01E0
01C0
03C0
0380
0700
0F00
0E00
1E00
3C00
3800
7800
7000
FFFC
FFFC
FFFC
ENDCHAR
STARTCHAR 01A0
ENCODING 416
SWIDTH 810 0
DWIDTH 27 0
BBX 25 27 1 -1
BITMAP
00000E00
00000C00
003F1C00
01FFF800
07FFF000
0FC1F800
1F003C00
3C001E00
38000F00
78000700
70000700
F0000380
E0000380
E0000380
E0000380
E0000380
E0000380
F0000780
70000700
78000F00
3C000E00
3E001E00
1F007C00
0FF7F800
03FFF000
00FFC000
000C0000
ENDCHAR
STARTCHAR 01A1
ENCODING 417
SWIDTH 810 0
DWIDTH 27 0
BBX 25 27 1 -1
BITMAP
00000E00
00000C00
003F1C00
01FFF800
07FFF000
0FC1F800
1F003C00
3C001E00
38000F00
78000700
70000700
F0000380
E0000380
E0000380
E0000380
E0000380
E0000380
F0000780
70000700
78000F00
3C000E00
3E001E00
1F007C00
0FF7F800
03FFF000
00FFC000
000C0000
ENDCHAR
STARTCHAR 01AF
ENCODING 431
SWIDTH 480 0
DWIDTH 16 0
BBX 17 27 1 -1
BITMAP
000180
000180
000300
F01E00
F01E00
F01E00
F01E00
F01E00
F01E00
F01E00
F01E00
F01E00
F01E00
F01E00
F01E00
F01E00
F01E00
F01E00
F01E00
F01C00
701C00
701C00
783C00
3EF800
1FF000
0FE000
010000
ENDCHAR
STARTCHAR 01B0
ENCODING 432
SWIDTH 480 0
DWIDTH 16 0
BBX 17 27 1 -1
BITMAP
000180
000180
000300
F01E00
F01E00
F01E00
F01E00
F01E00
F01E00
F01E00
F01E00
F01E00
F01E00
F01E00
F01E00
F01E00
F01E00
F01E00
F01E00
F01C00
701C00
701C00
783C00
3EF800
1FF000
0FE000
010000
ENDCHAR
STARTCHAR 01CD
ENCODING 461
SWIDTH 540 0
DWIDTH 18 0
BBX 16 30 2 0
BITMAP
3860
1CE0
0DC0
0F80
0000
0000
0780
1FE0
7FF0
78F8
F038
E038
E03C
E01C
E01C
E01C
E01C
E01C
E01C
E01C
E01C
E01C
E01C
E01C
E01C
E01C
E01C
FFFF
FFFF
FFFF
ENDCHAR
STARTCHAR 01CE
ENCODING 462
SWIDTH 540 0
DWIDTH 18 0
BBX 16 30 2 0
BITMAP
3860
1CE0
0DC0
0F80
0000
0000
0780
1FE0
7FF0
78F8
F038
E038
E03C
E01C
E01C
E01C
E01C
E01C
E01C
E01C
E01C
E01C
E01C
E01C
E01C
E01C
E01C
FFFF
FFFF
FFFF
ENDCHAR
STARTCHAR 01CF
ENCODING 463
SWIDTH 180 0
DWIDTH 6 0
BBX 9 21 -1 0
BITMAP
C380
6700
7600
3E00
0000
0000
0000
1C00
1C00
1C00
1C00
1C00
1C00
1C00
1C00
1C00
1C00
1C00
1C00
1C00
1C00
ENDCHAR
STARTCHAR 01D0
ENCODING 464
SWIDTH 180 0
DWIDTH 6 0
BBX 9 21 -1 0
BITMAP
C380
6700
7600
3E00
0000
0000
0000
1C00
1C00
1C00
1C00
1C00
1C00
1C00
1C00
1C00
1C00
1C00
1C00
1C00
1C00
ENDCHAR
STARTCHAR 01D1
ENCODING 465
SWIDTH 810 0
DWIDTH 27 0
BBX 25 31 1 -1
BITMAP
00E18000
00730000
00370000
003E0000
00000000
00000000
003F0000
01FFC000
07FFF000
0FC1F800
1F003C00
3C001E00
38000F00
78000700
70000700
F0000380
E0000380
E0000380
E0000380
E0000380
E0000380
F0000780
70000700
78000F00
3C000E00
3E001E00
1F007C00
0FF7F800
03FFF000
00FFC000
000C0000
ENDCHAR
STARTCHAR 01D2
ENCODING 466
SWIDTH 810 0
DWIDTH 27 0
BBX 25 31 1 -1
BITMAP
00E18000
00730000
00370000
003E0000
00000000
00000000
003F0000
01FFC000
07FFF000
0FC1F800
1F003C00
3C001E00
38000F00
78000700
70000700
F0000380
E0000380
E0000380
E0000380
E0000380
E0000380
F0000780
70000700
78000F00
3C000E00
3E001E00
1F007C00
0FF7F800
03FFF000
00FFC000
000C0000
ENDCHAR
STARTCHAR 01D3
ENCODING 467
SWIDTH 480 0
DWIDTH 16 0
BBX 15 31 1 -1
BITMAP
1C70
0C60
0EE0
07C0
0000
0000
0000
F01E
F01E
F01E
F01E
F01E
F01E
F01E
F01E
F01E
F01E
F01E
F01E
F01E
F01E
F01E
F01E
F01C
701C
701C
783C
3EF8
1FF0
0FE0
0100
ENDCHAR
STARTCHAR 01D4
ENCODING 468
SWIDTH 480 0
DWIDTH 16 0
BBX 15 31 1 -1
BITMAP
1C70
0C60
0EE0
07C0
0000
0000
0000
F01E
F01E
F01E
F01E
F01E
F01E
F01E
F01E
F01E
F01E
F01E
F01E
F01E
F01E
F01E
F01E
F01C
701C
701C
783C
3EF8
1FF0
0FE0
0100
ENDCHAR
STARTCHAR 02C6
ENCODING 710
SWIDTH 300 0
DWIDTH 10 0
BBX 10 5 0 25
BITMAP
1E00
3F00
3300
7180
E1C0
ENDCHAR
STARTCHAR 02C7
ENCODING 711
SWIDTH 300 0
DWIDTH 10 0
BBX 10 4 0 26
BITMAP
E1C0
7380
3F00
1E00
ENDCHAR
STARTCHAR 02D8
ENCODING 728
SWIDTH 270 0
DWIDTH 9 0
BBX 9 5 0 25
BITMAP
C180
C180
6300
7F00
0800
ENDCHAR
STARTCHAR 02D9
ENCODING 729
SWIDTH 120 0
DWIDTH 4 0
BBX 5 5 0 26
BITMAP
70
F8
F8
F8
70
ENDCHAR
STARTCHAR 02DA
ENCODING 730
SWIDTH 180 0
DWIDTH 6 0
BBX 7 7 0 25
BITMAP
38
7C
C6
C6
C6
7C
30
ENDCHAR
STARTCHAR 02DB
ENCODING 731
SWIDTH 180 0
DWIDTH 6 0
BBX 6 6 0 -6
BITMAP
78
C0
C0
C0
FC
7C
ENDCHAR
STARTCHAR 02DC
ENCODING 732
SWIDTH 210 0
DWIDTH 7 0
BBX 8 2 0 27
BITMAP
FF
FF
ENDCHAR
STARTCHAR 02DD
ENCODING 733
SWIDTH 300 0
DWIDTH 10 0
BBX 11 5 0 25
BITMAP
38E0
31C0
7180
6300
C300
ENDCHAR
STARTCHAR 0300
ENCODING 768
SWIDTH 0 0
DWIDTH 0 0
BBX 5 5 -5 25
BITMAP
E0
60
70
30
18
ENDCHAR
STARTCHAR 0301
ENCODING 769
SWIDTH 0 0
DWIDTH 0 0
BBX 5 5 -5 25
BITMAP
38
30
60
60
C0
ENDCHAR
STARTCHAR 0302
ENCODING 770
SWIDTH 0 0
DWIDTH 0 0
BBX 10 5 -10 25
BITMAP
1E00
3F00
3300
6380
E1C0
ENDCHAR
STARTCHAR 0303
ENCODING 771
SWIDTH 0 0
DWIDTH 0 0
BBX 8 2 -8 27
BITMAP
FF
FF
ENDCHAR
STARTCHAR 0304
ENCODING 772
SWIDTH 0 0
DWIDTH 0 0
BBX 9 3 -9 26
BITMAP
FF80
FF80
FF80
ENDCHAR
STARTCHAR 0306
ENCODING 774
SWIDTH 0 0
DWIDTH 0 0
BBX 9 5 -9 25
BITMAP
C180
C180
E300
7F00
0800
ENDCHAR
STARTCHAR 0307
ENCODING 775
SWIDTH 0 0
DWIDTH 0 0
BBX 5 5 -5 26
BITMAP
30
78
F8
F8
70
ENDCHAR
STARTCHAR 0308
ENCODING 776
SWIDTH 0 0
DWIDTH 0 0
BBX 12 5 -12 25
BITMAP
6060
F8F0
F9F0
F9F0
70E0
ENDCHAR
STARTCHAR 0309
ENCODING 777
SWIDTH 0 0
DWIDTH 0 0
BBX 3 7 -3 25
BITMAP
60
60
60
E0
C0
C0
60
ENDCHAR
STARTCHAR 030A
ENCODING 778
SWIDTH 0 0
DWIDTH 0 0
BBX 7 7 -7 25
BITMAP
38
7C
C6
C6
C6
7C
18
ENDCHAR
STARTCHAR 030B
ENCODING 779
SWIDTH 0 0
DWIDTH 0 0
BBX 11 5 -11 25
BITMAP
18E0
38C0
7180
6180
C300
ENDCHAR
STARTCHAR 030C
ENCODING 780
SWIDTH 0 0
DWIDTH 0 0
BBX 10 4 -10 26
BITMAP
E1C0
7380
3F00
1E00
ENDCHAR
STARTCHAR 031B
ENCODING 795
SWIDTH 0 0
DWIDTH 0 0
BBX 4 4 -4 22
BITMAP
30
30
60
C0
ENDCHAR
STARTCHAR 0323
ENCODING 803
SWIDTH 0 0
DWIDTH 0 0
BBX 5 5 -5 -9
BITMAP
70
F8
F8
F8
70
ENDCHAR
STARTCHAR 0326
ENCODING 806
SWIDTH 0 0
DWIDTH 0 0
BBX 4 5 -4 -7
BITMAP
70
60
E0
C0
C0
ENDCHAR
STARTCHAR 0327
ENCODING 807
SWIDTH 0 0
DWIDTH 0 0
BBX 7 7 -7 -7
BITMAP
18
18
0E
06
C6
FE
7C
ENDCHAR
STARTCHAR 0328
ENCODING 808
SWIDTH 0 0
DWIDTH 0 0
BBX 7 6 -7 -6
BITMAP
38
60
40
C0
7E
3C
ENDCHAR
STARTCHAR 0335
ENCODING 821
SWIDTH 0 0
DWIDTH 0 0
BBX 11 3 -11 6
BITMAP
FFE0
FFE0
FFE0
ENDCHAR
STARTCHAR 1EA0
ENCODING 7840
SWIDTH 540 0
DWIDTH 18 0
BBX 16 33 2 -9
BITMAP
0780
1FE0
7FF0
78F8
F038
E038
E03C
E01C
E01C
E01C
E01C
E01C
E01C
E01C
E01C
E01C
E01C
E01C
E01C
E01C
E01C
FFFF
FFFF
FFFF
0000
0000
0000
0000
0700
0780
0F80
0F80
0700
ENDCHAR
STARTCHAR 1EA1
ENCODING 7841
SWIDTH 540 0
DWIDTH 18 0
BBX 16 33 2 -9
BITMAP
0780
1FE0
7FF0
78F8
F038
E038
E03C
E01C
E01C
E01C
E01C
E01C
E01C
E01C
E01C
E01C
E01C
E01C
E01C
E01C
E01C
FFFF
FFFF
FFFF
0000
0000
0000
0000
0700
0780
0F80
0F80
0700
ENDCHAR
STARTCHAR 1EA2
ENCODING 7842
SWIDTH 540 0
DWIDTH 18 0
BBX 16 32 2 0
BITMAP
0300
0300
0300
0300
0600
0600
0300
0000
0780
1FE0
7FF0
78F8
F038
E038
E03C
E01C
E01C
E01C
E01C
E01C
E01C
E01C
E01C
E01C
E01C
E01C
E01C
E01C
E01C
FFFF
FFFF
FFFF
ENDCHAR
STARTCHAR 1EA3
ENCODING 7843
SWIDTH 540 0
DWIDTH 18 0
BBX 16 32 2 0
BITMAP
0300
0300
0300
0300
0600
0600
0300
0000
0780
1FE0
7FF0
78F8
F038
E038
E03C
E01C
E01C
E01C
E01C
E01C
E01C
E01C
E01C
E01C
E01C
E01C
E01C
E01C
E01C
FFFF
FFFF
FFFF
ENDCHAR
STARTCHAR 1EA4
ENCODING 7844
SWIDTH 540 0
DWIDTH 18 0
BBX 16 33 2 0
BITMAP
0007
0006
000C
079C
0F98
1DC0
18E0
3070
0000
0780
1FE0
7FF0
78F8
F038
E038
E03C
E01C
E01C
E01C
E01C
E01C
E01C
E01C
E01C
E01C
E01C
E01C
E01C
E01C
E01C
FFFF
FFFF
FFFF
ENDCHAR
STARTCHAR 1EA5
ENCODING 7845
SWIDTH 540 0
DWIDTH 18 0
BBX 16 33 2 0
BITMAP
0007
0006
000C
079C
0F98
1DC0
18E0
3070
0000
0780
1FE0
7FF0
78F8
F038
E038
E03C
E01C
E01C
E01C
E01C
E01C
E01C
E01C
E01C
E01C
E01C
E01C
E01C
E01C
E01C
FFFF
FFFF
FFFF
ENDCHAR
STARTCHAR 1EA6
ENCODING 7846
SWIDTH 540 0
DWIDTH 18 0
BBX 19 33 -1 0
BITMAP
E00000
600000
700000
30F000
19F000
03B800
031C00
060E00
000000
00F000
03FC00
0FFE00
0F1F00
1E0700
1C0700
1C0780
1C0380
1C0380
1C0380
1C0380
1C0380
1C0380
1C0380
1C0380
1C0380
1C0380
1C0380
1C0380
1C0380
1C0380
1FFFE0
1FFFE0
1FFFE0
ENDCHAR
STARTCHAR 1EA7
ENCODING 7847
SWIDTH 540 0
DWIDTH 18 0
BBX 19 33 -1 0
BITMAP
E00000
600000
700000
30F000
19F000
03B800
031C00
060E00
000000
00F000
03FC00
0FFE00
0F1F00
1E0700
1C0700
1C0780
1C0380
1C0380
1C0380
1C0380
1C0380
1C0380
1C0380
1C0380
1C0380
1C0380
1C0380
1C0380
1C0380
1C0380
1FFFE0
1FFFE0
1FFFE0
ENDCHAR
STARTCHAR 1EA8
ENCODING 7848
SWIDTH 540 0
DWIDTH 18 0
BBX 16 34 2 0
BITMAP
0018
001C
0018
0018
0798
0F98
1DC0
18E0
3070
0000
0780
1FE0
7FF0
78F8
F038
E038
E03C
E01C
E01C
E01C
E01C
E01C
E01C
E01C
E01C
E01C
E01C
E01C
E01C
E01C
E01C
FFFF
FFFF
FFFF
ENDCHAR
STARTCHAR 1EA9
ENCODING 7849
SWIDTH 540 0
DWIDTH 18 0
BBX 16 34 2 0
BITMAP
0018
001C
0018
0018
0798
0F98
1DC0
18E0
3070
0000
0780
1FE0
7FF0
78F8
F038
E038
E03C
E01C
E01C
E01C
E01C
E01C
E01C
E01C
E01C
E01C
E01C
E01C
E01C
E01C
E01C
FFFF
FFFF
FFFF
ENDCHAR
STARTCHAR 1EAA
ENCODING 7850
SWIDTH 540 0
DWIDTH 18 0
BBX 16 33 2 0
BITMAP
01FE
01FE
0008
0780
0F80
1DC0
18E0
3070
0000
0780
1FE0
7FF0
78F8
F038
E038
E03C
E01C
E01C
E01C
E01C
E01C
E01C
E01C
E01C
E01C
E01C
E01C
E01C
E01C
E01C
FFFF
FFFF
FFFF
ENDCHAR
STARTCHAR 1EAB
ENCODING 7851
SWIDTH 540 0
DWIDTH 18 0
BBX 16 33 2 0
BITMAP
01FE
01FE
0008
0780
0F80
1DC0
18E0
3070
0000
0780
1FE0
7FF0
78F8
F038
E038
E03C
E01C
E01C
E01C
E01C
E01C
E01C
E01C
E01C
E01C
E01C
E01C
E01C
E01C
E01C
FFFF
FFFF
FFFF
ENDCHAR
STARTCHAR 1EAC
ENCODING 7852
SWIDTH 540 0
DWIDTH 18 0
BBX 16 39 2 -9
BITMAP
0780
0F80
1DC0
18E0
3070
0000
0780
1FE0
7FF0
78F8
F038
E038
E03C
E01C
E01C
E01C
E01C
E01C
E01C
E01C
E01C
E01C
E01C
E01C
E01C
E01C
E01C
FFFF
FFFF
FFFF
0000
0000
0000
0000
0700
0780
0F80
0F80
0700
ENDCHAR
STARTCHAR 1EAD
ENCODING 7853
SWIDTH 540 0
DWIDTH 18 0
BBX 16 39 2 -9
BITMAP
0780
0F80
1DC0
18E0
3070
0000
0780
1FE0
7FF0
78F8
F038
E038
E03C
E01C
E01C
E01C
E01C
E01C
E01C
E01C
E01C
E01C
E01C
E01C
E01C
E01C
E01C
FFFF
FFFF
FFFF
0000
0000
0000
0000
0700
0780
0F80
0F80
0700
ENDCHAR
STARTCHAR 1EAE
ENCODING 7854
SWIDTH 540 0
DWIDTH 18 0
BBX 16 34 2 0
BITMAP
00C0
01C0
0180
0300
3060
3860
18E0
0FC0
0300
0000
0780
1FE0
7FF0
78F8
F038
E038
E03C
E01C
E01C
E01C
E01C
E01C
E01C
E01C
E01C
E01C
E01C
E01C
E01C
E01C
E01C
FFFF
FFFF
FFFF
ENDCHAR
STARTCHAR 1EAF
ENCODING 7855
SWIDTH 540 0
DWIDTH 18 0
BBX 16 34 2 0
BITMAP
00C0
01C0
0180
0300
3060
3860
18E0
0FC0
0300
0000
0780
1FE0
7FF0
78F8
F038
E038
E03C
E01C
E01C
E01C
E01C
E01C
E01C
E01C
E01C
E01C
E01C
E01C
E01C
E01C
E01C
FFFF
FFFF
FFFF
ENDCHAR
STARTCHAR 1EB0
ENCODING 7856
SWIDTH 540 0
DWIDTH 18 0
BBX 16 34 2 0
BITMAP
3800
1C00
0C00
0600
3060
3860
18E0
0FC0
0300
0000
0780
1FE0
7FF0
78F8
F038
E038
E03C
E01C
E01C
E01C
E01C
E01C
E01C
E01C
E01C
E01C
E01C
E01C
E01C
E01C
E01C
FFFF
FFFF
FFFF
ENDCHAR
STARTCHAR 1EB1
ENCODING 7857
SWIDTH 540 0
DWIDTH 18 0
BBX 16 34 2 0
BITMAP
3800
1C00
0C00
0600
3060
3860
18E0
0FC0
0300
0000
0780
1FE0
7FF0
78F8
F038
E038
E03C
E01C
E01C
E01C
E01C
E01C
E01C
E01C
E01C
E01C
E01C
E01C
E01C
E01C
E01C
FFFF
FFFF
FFFF
ENDCHAR
STARTCHAR 1EB2
ENCODING 7858
SWIDTH 540 0
DWIDTH 18 0
BBX 16 35 2 0
BITMAP
0300
0380
0300
0300
0300
3360
3860
18E0
0FC0
0300
0000
0780
1FE0
7FF0
78F8
F038
E038
E03C
E01C
E01C
E01C
E01C
E01C
E01C
E01C
E01C
E01C
E01C
E01C
E01C
E01C
E01C
FFFF
FFFF
FFFF
ENDCHAR
STARTCHAR 1EB3
ENCODING 7859
SWIDTH 540 0
DWIDTH 18 0
BBX 16 35 2 0
BITMAP
0300
0380
0300
0300
0300
3360
3860
18E0
0FC0
0300
0000
0780
1FE0
7FF0
78F8
F038
E038
E03C
E01C
E01C
E01C
E01C
E01C
E01C
E01C
E01C
E01C
E01C
E01C
E01C
E01C
E01C
FFFF
FFFF
FFFF
ENDCHAR
STARTCHAR 1EB4
ENCODING 7860
SWIDTH 540 0
DWIDTH 18 0
BBX 16 34 2 0
BITMAP
0800
1FE0
1FE0
0000
3060
3860
18E0
0FC0
0300
0000
0780
1FE0
7FF0
78F8
F038
E038
E03C
E01C
E01C
E01C
E01C
E01C
E01C
E01C
E01C
E01C
E01C
E01C
E01C
E01C
E01C
FFFF
FFFF
FFFF
ENDCHAR
STARTCHAR 1EB5
ENCODING 7861
SWIDTH 540 0
DWIDTH 18 0
BBX 16 34 2 0
BITMAP
0800
1FE0
1FE0
0000
3060
3860
18E0
0FC0
0300
0000
0780
1FE0
7FF0
78F8
F038
E038
E03C
E01C
E01C
E01C
E01C
E01C
E01C
E01C
E01C
E01C
E01C
E01C
E01C
E01C
E01C
FFFF
FFFF
FFFF
ENDCHAR
STARTCHAR 1EB6
ENCODING 7862
SWIDTH 540 0
DWIDTH 18 0
BBX 16 39 2 -9
BITMAP
3060
3860
18E0
0FC0
0300
0000
0780
1FE0
7FF0
78F8
F038
E038
E03C
E01C
E01C
E01C
E01C
E01C
E01C
E01C
E01C
E01C
E01C
E01C
E01C
E01C
E01C
FFFF
FFFF
FFFF
0000
0000
0000
0000
0700
0780
0F80
0F80
0700
ENDCHAR
STARTCHAR 1EB7
ENCODING 7863
SWIDTH 540 0
DWIDTH 18 0
BBX 16 39 2 -9
BITMAP
3060
3860
18E0
0FC0
0300
0000
0780
1FE0
7FF0
78F8
F038
E038
E03C
E01C
E01C
E01C
E01C
E01C
E01C
E01C
E01C
E01C
E01C
E01C
E01C
E01C
E01C
FFFF
FFFF
FFFF
0000
0000
0000
0000
0700
0780
0F80
0F80
0700
ENDCHAR
STARTCHAR 1EB8
ENCODING 7864
SWIDTH 480 0
DWIDTH 16 0
BBX 15 32 1 -9
BITMAP
3FF0
3FF0
3FF0
3800
3800
3800
3800
3800
3800
3800
FFF8
FFF8
FFF8
3800
3800
3800
3800
3800
3800
3800
3FFE
3FFE
3FFE
0000
0000
0000
0000
00C0
01E0
01F0
01E0
00E0
ENDCHAR
STARTCHAR 1EB9
ENCODING 7865
SWIDTH 480 0
DWIDTH 16 0
BBX 15 32 1 -9
BITMAP
3FF0
3FF0
3FF0
3800
3800
3800
3800
3800
3800
3800
FFF8
FFF8
FFF8
3800
3800
3800
3800
3800
3800
3800
3FFE
3FFE
3FFE
0000
0000
0000
0000
00C0
01E0
01F0
01E0
00E0
ENDCHAR
STARTCHAR 1EBA
ENCODING 7866
SWIDTH 480 0
DWIDTH 16 0
BBX 15 32 1 0
BITMAP
0300
0300
0300
0300
0600
0600
0300
0000
0000
3FF0
3FF0
3FF0
3800
3800
3800
3800
3800
3800
3800
FFF8
FFF8
FFF8
3800
3800
3800
3800
3800
3800
3800
3FFE
3FFE
3FFE
ENDCHAR
STARTCHAR 1EBB
ENCODING 7867
SWIDTH 480 0
DWIDTH 16 0
BBX 15 32 1 0
BITMAP
0300
0300
0300
0300
0600
0600
0300
0000
0000
3FF0
3FF0
3FF0
3800
3800
3800
3800
3800
3800
3800
FFF8
FFF8
FFF8
3800
3800
3800
3800
3800
3800
3800
3FFE
3FFE
3FFE
ENDCHAR
STARTCHAR 1EBC
ENCODING 7868
SWIDTH 480 0
DWIDTH 16 0
BBX 15 29 1 0
BITMAP
3FC0
3FC0
0000
0000
0000
0000
3FF0
3FF0
3FF0
3800
3800
3800
3800
3800
3800
3800
FFF8
FFF8
FFF8
3800
3800
3800
3800
3800
3800
3800
3FFE
3FFE
3FFE
ENDCHAR
STARTCHAR 1EBD
ENCODING 7869
SWIDTH 480 0
DWIDTH 16 0
BBX 15 29 1 0
BITMAP
3FC0
3FC0
0000
0000
0000
0000
3FF0
3FF0
3FF0
3800
3800
3800
3800
3800
3800
3800
FFF8
FFF8
FFF8
3800
3800
3800
3800
3800
3800
3800
3FFE
3FFE
3FFE
ENDCHAR
STARTCHAR 1EBE
ENCODING 7870
SWIDTH 480 0
DWIDTH 16 0
BBX 16 33 1 0
BITMAP
0007
0006
000C
079C
0F98
1DC0
18E0
3870
0000
0000
3FF0
3FF0
3FF0
3800
3800
3800
3800
3800
3800
3800
FFF8
FFF8
FFF8
3800
3800
3800
3800
3800
3800
3800
3FFE
3FFE
3FFE
ENDCHAR
STARTCHAR 1EBF
ENCODING 7871
SWIDTH 480 0
DWIDTH 16 0
BBX 16 33 1 0
BITMAP
0007
0006
000C
079C
0F98
1DC0
18E0
3870
0000
0000
3FF0
3FF0
3FF0
3800
3800
3800
3800
3800
3800
3800
FFF8
FFF8
FFF8
3800
3800
3800
3800
3800
3800
3800
3FFE
3FFE
3FFE
ENDCHAR
STARTCHAR 1EC0
ENCODING 7872
SWIDTH 480 0
DWIDTH 16 0
BBX 18 33 -2 0
BITMAP
E00000
600000
300000
30F000
19F000
03B800
031C00
070E00
000000
000000
07FE00
07FE00
07FE00
070000
070000
070000
070000
070000
070000
070000
1FFF00
1FFF00
1FFF00
070000
070000
070000
070000
070000
070000
070000
07FFC0
07FFC0
07FFC0
ENDCHAR
STARTCHAR 1EC1
ENCODING 7873
SWIDTH 480 0
DWIDTH 16 0
BBX 18 33 -2 0
BITMAP
E00000
600000
300000
30F000
19F000
03B800
031C00
070E00
000000
000000
07FE00
07FE00
07FE00
070000
070000
070000
070000
070000
070000
070000
1FFF00
1FFF00
1FFF00
070000
070000
070000
070000
070000
070000
070000
07FFC0
07FFC0
07FFC0
ENDCHAR
STARTCHAR 1EC2
ENCODING 7874
SWIDTH 480 0
DWIDTH 16 0
BBX 15 34 1 0
BITMAP
001C
000C
0018
0018
0798
0F98
1DC0
18E0
3870
0000
0000
3FF0
3FF0
3FF0
3800
3800
3800
3800
3800
3800
3800
FFF8
FFF8
FFF8
3800
3800
3800
3800
3800
3800
3800
3FFE
3FFE
3FFE
ENDCHAR
STARTCHAR 1EC3
ENCODING 7875
SWIDTH 480 0
DWIDTH 16 0
BBX 15 34 1 0
BITMAP
001C
000C
0018
0018
0798
0F98
1DC0
18E0
3870
0000
0000
3FF0
3FF0
3FF0
3800
3800
3800
3800
3800
3800
3800
FFF8
FFF8
FFF8
3800
3800
3800
3800
3800
3800
3800
3FFE
3FFE
3FFE
ENDCHAR
STARTCHAR 1EC4
ENCODING 7876
SWIDTH 480 0
DWIDTH 16 0
BBX 15 33 1 0
BITMAP
01FE
01FE
0008
0780
0F80
1DC0
18E0
3870
0000
0000
3FF0
3FF0
3FF0
3800
3800
3800
3800
3800
3800
3800
FFF8
FFF8
FFF8
3800
3800
3800
3800
3800
3800
3800
3FFE
3FFE
3FFE
ENDCHAR
STARTCHAR 1EC5
ENCODING 7877
SWIDTH 480 0
DWIDTH 16 0
BBX 15 33 1 0
BITMAP
01FE
01FE
0008
0780
0F80
1DC0
18E0
3870
0000
0000
3FF0
3FF0
3FF0
3800
3800
3800
3800
3800
3800
3800
FFF8
FFF8
FFF8
3800
3800
3800
3800
3800
3800
3800
3FFE
3FFE
3FFE
ENDCHAR
STARTCHAR 1EC6
ENCODING 7878
SWIDTH 480 0
DWIDTH 16 0
BBX 15 39 1 -9
BITMAP
0780
0F80
1DC0
18E0
3870
0000
0000
3FF0
3FF0
3FF0
3800
3800
3800
3800
3800
3800
3800
FFF8
FFF8
FFF8
3800
3800
3800
3800
3800
3800
3800
3FFE
3FFE
3FFE
0000
0000
0000
0000
00C0
01E0
01F0
01E0
00E0
ENDCHAR
STARTCHAR 1EC7
ENCODING 7879
SWIDTH 480 0
DWIDTH 16 0
BBX 15 39 1 -9
BITMAP
0780
0F80
1DC0
18E0
3870
0000
0000
3FF0
3FF0
3FF0
3800
3800
3800
3800
3800
3800
3800
FFF8
FFF8
FFF8
3800
3800
3800
3800
3800
3800
3800
3FFE
3FFE
3FFE
0000
0000
0000
0000
00C0
01E0
01F0
01E0
00E0
ENDCHAR
STARTCHAR 1EC8
ENCODING 7880
SWIDTH 180 0
DWIDTH 6 0
BBX 3 23 2 0
BITMAP
C0
60
60
C0
C0
C0
C0
00
00
E0
E0
E0
E0
E0
E0
E0
E0
E0
E0
E0
E0
E0
E0
ENDCHAR
STARTCHAR 1EC9
ENCODING 7881
SWIDTH 180 0
DWIDTH 6 0
BBX 3 23 2 0
BITMAP
C0
60
60
C0
C0
C0
C0
00
00
E0
E0
E0
E0
E0
E0
E0
E0
E0
E0
E0
E0
E0
E0
ENDCHAR
STARTCHAR 1ECA
ENCODING 7882
SWIDTH 180 0
DWIDTH 6 0
BBX 8 35 -1 -8
BITMAP
08
18
18
FF
3C
3C
26
02
00
00
00
00
1C
1C
1C
1C
1C
1C
1C
1C
1C
1C
1C
1C
1C
1C
00
00
00
00
1C
3C
3E
3C
1C
ENDCHAR
STARTCHAR 1ECB
ENCODING 7883
SWIDTH 180 0
DWIDTH 6 0
BBX 8 35 -1 -8
BITMAP
08
18
18
FF
3C
3C
26
02
00
00
00
00
1C
1C
1C
1C
1C
1C
1C
1C
1C
1C
1C
1C
1C
1C
00
00
00
00
1C
3C
3E
3C
1C
ENDCHAR
STARTCHAR 1ECC
ENCODING 7884
SWIDTH 810 0
DWIDTH 27 0
BBX 25 33 1 -9
BITMAP
003F0000
01FFC000
07FFF000
0FC1F800
1F003C00
3C001E00
38000F00
78000700
70000700
F0000380
E0000380
E0000380
E0000380
E0000380
E0000380
F0000780
70000700
78000F00
3C000E00
3E001E00
1F007C00
0FF7F800
03FFF000
00FFC000
000C0000
00000000
00000000
00000000
001C0000
003E0000
003E0000
003E0000
001C0000
ENDCHAR
STARTCHAR 1ECD
ENCODING 7885
SWIDTH 810 0
DWIDTH 27 0
BBX 25 33 1 -9
BITMAP
003F0000
01FFC000
07FFF000
0FC1F800
1F003C00
3C001E00
38000F00
78000700
70000700
F0000380
E0000380
E0000380
E0000380
E0000380
E0000380
F0000780
70000700
78000F00
3C000E00
3E001E00
1F007C00
0FF7F800
03FFF000
00FFC000
000C0000
00000000
00000000
00000000
001C0000
003E0000
003E0000
003E0000
001C0000
ENDCHAR
STARTCHAR 1ECE
ENCODING 7886
SWIDTH 810 0
DWIDTH 27 0
BBX 25 33 1 -1
BITMAP
000C0000
000C0000
000C0000
00180000
00180000
00180000
001C0000
00000000
003F0000
01FFC000
07FFF000
0FC1F800
1F003C00
3C001E00
38000F00
78000700
70000700
F0000380
E0000380
E0000380
E0000380
E0000380
E0000380
F0000780
70000700
78000F00
3C000E00
3E001E00
1F007C00
0FF7F800
03FFF000
00FFC000
000C0000
ENDCHAR
STARTCHAR 1ECF
ENCODING 7887
SWIDTH 810 0
DWIDTH 27 0
BBX 25 33 1 -1
BITMAP
000C0000
000C0000
000C0000
00180000
00180000
00180000
001C0000
00000000
003F0000
01FFC000
07FFF000
0FC1F800
1F003C00
3C001E00
38000F00
78000700
70000700
F0000380
E0000380
E0000380
E0000380
E0000380
E0000380
F0000780
70000700
78000F00
3C000E00
3E001E00
1F007C00
0FF7F800
03FFF000
00FFC000
000C0000
ENDCHAR
STARTCHAR 1ED0
ENCODING 7888
SWIDTH 810 0
DWIDTH 27 0
BBX 25 34 1 -1
BITMAP
00001C00
00003800
00003000
001C6000
003E6000
00770000
00E38000
00C1C000
00000000
003F0000
01FFC000
07FFF000
0FC1F800
1F003C00
3C001E00
38000F00
78000700
70000700
F0000380
E0000380
E0000380
E0000380
E0000380
E0000380
F0000780
70000700
78000F00
3C000E00
3E001E00
1F007C00
0FF7F800
03FFF000
00FFC000
000C0000
ENDCHAR
STARTCHAR 1ED1
ENCODING 7889
SWIDTH 810 0
DWIDTH 27 0
BBX 25 34 1 -1
BITMAP
00001C00
00003800
00003000
001C6000
003E6000
00770000
00E38000
00C1C000
00000000
003F0000
01FFC000
07FFF000
0FC1F800
1F003C00
3C001E00
38000F00
78000700
70000700
F0000380
E0000380
E0000380
E0000380
E0000380
E0000380
F0000780
70000700
78000F00
3C000E00
3E001E00
1F007C00
0FF7F800
03FFF000
00FFC000
000C0000
ENDCHAR
STARTCHAR 1ED2
ENCODING 7890
SWIDTH 810 0
DWIDTH 27 0
BBX 25 34 1 -1
BITMAP
18000000
0C000000
0E000000
061C0000
033E0000
00770000
00E38000
00C1C000
00000000
003F0000
01FFC000
07FFF000
0FC1F800
1F003C00
3C001E00
38000F00
78000700
70000700
F0000380
E0000380
E0000380
E0000380
E0000380
E0000380
F0000780
70000700
78000F00
3C000E00
3E001E00
1F007C00
0FF7F800
03FFF000
00FFC000
000C0000
ENDCHAR
STARTCHAR 1ED3
ENCODING 7891
SWIDTH 810 0
DWIDTH 27 0
BBX 25 34 1 -1
BITMAP
18000000
0C000000
0E000000
061C0000
033E0000
00770000
00E38000
00C1C000
00000000
003F0000
01FFC000
07FFF000
0FC1F800
1F003C00
3C001E00
38000F00
78000700
70000700
F0000380
E0000380
E0000380
E0000380
E0000380
E0000380
F0000780
70000700
78000F00
3C000E00
3E001E00
1F007C00
0FF7F800
03FFF000
00FFC000
000C0000
ENDCHAR
STARTCHAR 1ED4
ENCODING 7892
SWIDTH 810 0
DWIDTH 27 0
BBX 25 35 1 -1
BITMAP
00006000
00006000
00006000
00006000
001C6000
003E6000
00770000
00E38000
00C1C000
00000000
003F0000
01FFC000
07FFF000
0FC1F800
1F003C00
3C001E00
38000F00
78000700
70000700
F0000380
E0000380
E0000380
E0000380
E0000380
E0000380
F0000780
70000700
78000F00
3C000E00
3E001E00
1F007C00
0FF7F800
03FFF000
00FFC000
000C0000
ENDCHAR
STARTCHAR 1ED5
ENCODING 7893
SWIDTH 810 0
DWIDTH 27 0
BBX 25 35 1 -1
BITMAP
00006000
00006000
00006000
00006000
001C6000
003E6000
00770000
00E38000
00C1C000
00000000
003F0000
01FFC000
07FFF000
0FC1F800
1F003C00
3C001E00
38000F00
78000700
70000700
F0000380
E0000380
E0000380
E0000380
E0000380
E0000380
F0000780
70000700
78000F00
3C000E00
3E001E00
1F007C00
0FF7F800
03FFF000
00FFC000
000C0000
ENDCHAR
STARTCHAR 1ED6
ENCODING 7894
SWIDTH 810 0
DWIDTH 27 0
BBX 25 34 1 -1
BITMAP
000FF000
000FF000
00002000
001C0000
003E0000
00770000
00E38000
00C1C000
00000000
003F0000
01FFC000
07FFF000
0FC1F800
1F003C00
3C001E00
38000F00
78000700
70000700
F0000380
E0000380
E0000380
E0000380
E0000380
E0000380
F0000780
70000700
78000F00
3C000E00
3E001E00
1F007C00
0FF7F800
03FFF000
00FFC000
000C0000
ENDCHAR
STARTCHAR 1ED7
ENCODING 7895
SWIDTH 810 0
DWIDTH 27 0
BBX 25 34 1 -1
BITMAP
000FF000
000FF000
00002000
001C0000
003E0000
00770000
00E38000
00C1C000
00000000
003F0000
01FFC000
07FFF000
0FC1F800
1F003C00
3C001E00
38000F00
78000700
70000700
F0000380
E0000380
E0000380
E0000380
E0000380
E0000380
F0000780
70000700
78000F00
3C000E00
3E001E00
1F007C00
0FF7F800
03FFF000
00FFC000
000C0000
ENDCHAR
STARTCHAR 1ED8
ENCODING 7896
SWIDTH 810 0
DWIDTH 27 0
BBX 25 39 1 -9
BITMAP
001C0000
003E0000
00770000
00E38000
00C1C000
00000000
003F0000
01FFC000
07FFF000
0FC1F800
1F003C00
3C001E00
38000F00
78000700
70000700
F0000380
E0000380
E0000380
E0000380
E0000380
E0000380
F0000780
70000700
78000F00
3C000E00
3E001E00
1F007C00
0FF7F800
03FFF000
00FFC000
000C0000
00000000
00000000
00000000
001C0000
003E0000
003E0000
003E0000
001C0000
ENDCHAR
STARTCHAR 1ED9
ENCODING 7897
SWIDTH 810 0
DWIDTH 27 0
BBX 25 39 1 -9
BITMAP
001C0000
003E0000
00770000
00E38000
00C1C000
00000000
003F0000
01FFC000
07FFF000
0FC1F800
1F003C00
3C001E00
38000F00
78000700
70000700
F0000380
E0000380
E0000380
E0000380
E0000380
E0000380
F0000780
70000700
78000F00
3C000E00
3E001E00
1F007C00
0FF7F800
03FFF000
00FFC000
000C0000
00000000
00000000
00000000
001C0000
003E0000
003E0000
003E0000
001C0000
ENDCHAR
STARTCHAR 1EDA
ENCODING 7898
SWIDTH 810 0
DWIDTH 27 0
BBX 25 31 1 -1
BITMAP
00070000
00060000
000E0000
000C0000
00180E00
00000C00
003F1C00
01FFF800
07FFF000
0FC1F800
1F003C00
3C001E00
38000F00
78000700
70000700
F0000380
E0000380
E0000380
E0000380
E0000380
E0000380
F0000780
70000700
78000F00
3C000E00
3E001E00
1F007C00
0FF7F800
03FFF000
00FFC000
000C0000
ENDCHAR
STARTCHAR 1EDB
ENCODING 7899
SWIDTH 810 0
DWIDTH 27 0
BBX 25 31 1 -1
BITMAP
00070000
00060000
000E0000
000C0000
00180E00
00000C00
003F1C00
01FFF800
07FFF000
0FC1F800
1F003C00
3C001E00
38000F00
78000700
70000700
F0000380
E0000380
E0000380
E0000380
E0000380
E0000380
F0000780
70000700
78000F00
3C000E00
3E001E00
1F007C00
0FF7F800
03FFF000
00FFC000
000C0000
ENDCHAR
STARTCHAR 1EDC
ENCODING 7900
SWIDTH 810 0
DWIDTH 27 0
BBX 25 31 1 -1
BITMAP
00700000
00300000
00180000
001C0000
000C0E00
00000C00
003F1C00
01FFF800
07FFF000
0FC1F800
1F003C00
3C001E00
38000F00
78000700
70000700
F0000380
E0000380
E0000380
E0000380
E0000380
E0000380
F0000780
70000700
78000F00
3C000E00
3E001E00
1F007C00
0FF7F800
03FFF000
00FFC000
000C0000
ENDCHAR
STARTCHAR 1EDD
ENCODING 7901
SWIDTH 810 0
DWIDTH 27 0
BBX 25 31 1 -1
BITMAP
00700000
00300000
00180000
001C0000
000C0E00
00000C00
003F1C00
01FFF800
07FFF000
0FC1F800
1F003C00
3C001E00
38000F00
78000700
70000700
F0000380
E0000380
E0000380
E0000380
E0000380
E0000380
F0000780
70000700
78000F00
3C000E00
3E001E00
1F007C00
0FF7F800
03FFF000
00FFC000
000C0000
ENDCHAR
STARTCHAR 1EDE
ENCODING 7902
SWIDTH 810 0
DWIDTH 27 0
BBX 25 33 1 -1
BITMAP
000C0000
000C0000
000C0000
00180000
00180000
00180000
001C0E00
00000C00
003F1C00
01FFF800
07FFF000
0FC1F800
1F003C00
3C001E00
38000F00
78000700
70000700
F0000380
E0000380
E0000380
E0000380
E0000380
E0000380
F0000780
70000700
78000F00
3C000E00
3E001E00
1F007C00
0FF7F800
03FFF000
00FFC000
000C0000
ENDCHAR
STARTCHAR 1EDF
ENCODING 7903
SWIDTH 810 0
DWIDTH 27 0
BBX 25 33 1 -1
BITMAP
000C0000
000C0000
000C0000
00180000
00180000
00180000
001C0E00
00000C00
003F1C00
01FFF800
07FFF000
0FC1F800
1F003C00
3C001E00
38000F00
78000700
70000700
F0000380
E0000380
E0000380
E0000380
E0000380
E0000380
F0000780
70000700
78000F00
3C000E00
3E001E00
1F007C00
0FF7F800
03FFF000
00FFC000
000C0000
ENDCHAR
STARTCHAR 1EE0
ENCODING 7904
SWIDTH 810 0
DWIDTH 27 0
BBX 25 30 1 -1
BITMAP
00FF0000
00FF0000
00000000
00000E00
00000C00
003F1C00
01FFF800
07FFF000
0FC1F800
1F003C00
3C001E00
38000F00
78000700
70000700
F0000380
E0000380
E0000380
E0000380
E0000380
E0000380
F0000780
70000700
78000F00
3C000E00
3E001E00
1F007C00
0FF7F800
03FFF000
00FFC000
000C0000
ENDCHAR
STARTCHAR 1EE1
ENCODING 7905
SWIDTH 810 0
DWIDTH 27 0
BBX 25 30 1 -1
BITMAP
00FF0000
00FF0000
00000000
00000E00
00000C00
003F1C00
01FFF800
07FFF000
0FC1F800
1F003C00
3C001E00
38000F00
78000700
70000700
F0000380
E0000380
E0000380
E0000380
E0000380
E0000380
F0000780
70000700
78000F00
3C000E00
3E001E00
1F007C00
0FF7F800
03FFF000
00FFC000
000C0000
ENDCHAR
STARTCHAR 1EE2
ENCODING 7906
SWIDTH 810 0
DWIDTH 27 0
BBX 25 35 1 -9
BITMAP
00000E00
00000C00
003F1C00
01FFF800
07FFF000
0FC1F800
1F003C00
3C001E00
38000F00
78000700
70000700
F0000380
E0000380
E0000380
E0000380
E0000380
E0000380
F0000780
70000700
78000F00
3C000E00
3E001E00
1F007C00
0FF7F800
03FFF000
00FFC000
000C0000
00000000
00000000
00000000
001C0000
003E0000
003E0000
003E0000
001C0000
ENDCHAR
STARTCHAR 1EE3
ENCODING 7907
SWIDTH 810 0
DWIDTH 27 0
BBX 25 35 1 -9
BITMAP
00000E00
00000C00
003F1C00
01FFF800
07FFF000
0FC1F800
1F003C00
3C001E00
38000F00
78000700
70000700
F0000380
E0000380
E0000380
E0000380
E0000380
E0000380
F0000780
70000700
78000F00
3C000E00
3E001E00
1F007C00
0FF7F800
03FFF000
00FFC000
000C0000
00000000
00000000
00000000
001C0000
003E0000
003E0000
003E0000
001C0000
ENDCHAR
STARTCHAR 1EE4
ENCODING 7908
SWIDTH 480 0
DWIDTH 16 0
BBX 15 32 1 -9
BITMAP
F01E
F01E
F01E
F01E
F01E
F01E
F01E
F01E
F01E
F01E
F01E
F01E
F01E
F01E
F01E
F01E
F01C
701C
701C
783C
3EF8
1FF0
0FE0
0100
0000
0000
0000
0380
07C0
07C0
07C0
0380
ENDCHAR
STARTCHAR 1EE5
ENCODING 7909
SWIDTH 480 0
DWIDTH 16 0
BBX 15 32 1 -9
BITMAP
F01E
F01E
F01E
F01E
F01E
F01E
F01E
F01E
F01E
F01E
F01E
F01E
F01E
F01E
F01E
F01E
F01C
701C
701C
783C
3EF8
1FF0
0FE0
0100
0000
0000
0000
0380
07C0
07C0
07C0
0380
ENDCHAR
STARTCHAR 1EE6
ENCODING 7910
SWIDTH 480 0
DWIDTH 16 0
BBX 15 33 1 -1
BITMAP
0300
0180
0180
0300
0300
0300
0300
0000
0000
F01E
F01E
F01E
F01E
F01E
F01E
F01E
F01E
F01E
F01E
F01E
F01E
F01E
F01E
F01E
F01E
F01C
701C
701C
783C
3EF8
1FF0
0FE0
0100
ENDCHAR
STARTCHAR 1EE7
ENCODING 7911
SWIDTH 480 0
DWIDTH 16 0
BBX 15 33 1 -1
BITMAP
0300
0180
0180
0300
0300
0300
0300
0000
0000
F01E
F01E
F01E
F01E
F01E
F01E
F01E
F01E
F01E
F01E
F01E
F01E
F01E
F01E
F01E
F01E
F01C
701C
701C
783C
3EF8
1FF0
0FE0
0100
ENDCHAR
STARTCHAR 1EE8
ENCODING 7912
SWIDTH 480 0
DWIDTH 16 0
BBX 17 31 1 -1
BITMAP
00E000
00C000
018000
018000
030180
000180
000300
F01E00
F01E00
F01E00
F01E00
F01E00
F01E00
F01E00
F01E00
F01E00
F01E00
F01E00
F01E00
F01E00
F01E00
F01E00
F01E00
F01C00
701C00
701C00
783C00
3EF800
1FF000
0FE000
010000
ENDCHAR
STARTCHAR 1EE9
ENCODING 7913
SWIDTH 480 0
DWIDTH 16 0
BBX 17 31 1 -1
BITMAP
00E000
00C000
018000
018000
030180
000180
000300
F01E00
F01E00
F01E00
F01E00
F01E00
F01E00
F01E00
F01E00
F01E00
F01E00
F01E00
F01E00
F01E00
F01E00
F01E00
F01E00
F01C00
701C00
701C00
783C00
3EF800
1FF000
0FE000
010000
ENDCHAR
STARTCHAR 1EEA
ENCODING 7914
SWIDTH 480 0
DWIDTH 16 0
BBX 17 31 1 -1
BITMAP
0E0000
060000
070000
030000
018180
000180
000300
F01E00
F01E00
F01E00
F01E00
F01E00
F01E00
F01E00
F01E00
F01E00
F01E00
F01E00
F01E00
F01E00
F01E00
F01E00
F01E00
F01C00
701C00
701C00
783C00
3EF800
1FF000
0FE000
010000
ENDCHAR
STARTCHAR 1EEB
ENCODING 7915
SWIDTH 480 0
DWIDTH 16 0
BBX 17 31 1 -1
BITMAP
0E0000
060000
070000
030000
018180
000180
000300
F01E00
F01E00
F01E00
F01E00
F01E00
F01E00
F01E00
F01E00
F01E00
F01E00
F01E00
F01E00
F01E00
F01E00
F01E00
F01E00
F01C00
701C00
701C00
783C00
3EF800
1FF000
0FE000
010000
ENDCHAR
STARTCHAR 1EEC
ENCODING 7916
SWIDTH 480 0
DWIDTH 16 0
BBX 17 33 1 -1
BITMAP
030000
018000
018000
030000
030000
030000
030180
000180
000300
F01E00
F01E00
F01E00
F01E00
F01E00
F01E00
F01E00
F01E00
F01E00
F01E00
F01E00
F01E00
F01E00
F01E00
F01E00
F01E00
F01C00
701C00
701C00
783C00
3EF800
1FF000
0FE000
010000
ENDCHAR
STARTCHAR 1EED
ENCODING 7917
SWIDTH 480 0
DWIDTH 16 0
BBX 17 33 1 -1
BITMAP
030000
018000
018000
030000
030000
030000
030180
000180
000300
F01E00
F01E00
F01E00
F01E00
F01E00
F01E00
F01E00
F01E00
F01E00
F01E00
F01E00
F01E00
F01E00
F01E00
F01E00
F01E00
F01C00
701C00
701C00
783C00
3EF800
1FF000
0FE000
010000
ENDCHAR
STARTCHAR 1EEE
ENCODING 7918
SWIDTH 480 0
DWIDTH 16 0
BBX 17 30 1 -1
BITMAP
1FE000
1FE000
000000
000180
000180
000300
F01E00
F01E00
F01E00
F01E00
F01E00
F01E00
F01E00
F01E00
F01E00
F01E00
F01E00
F01E00
F01E00
F01E00
F01E00
F01E00
F01C00
701C00
701C00
783C00
3EF800
1FF000
0FE000
010000
ENDCHAR
STARTCHAR 1EEF
ENCODING 7919
SWIDTH 480 0
DWIDTH 16 0
BBX 17 30 1 -1
BITMAP
1FE000
1FE000
000000
000180
000180
000300
F01E00
F01E00
F01E00
F01E00
F01E00
F01E00
F01E00
F01E00
F01E00
F01E00
F01E00
F01E00
F01E00
F01E00
F01E00
F01E00
F01C00
701C00
701C00
783C00
3EF800
1FF000
0FE000
010000
ENDCHAR
STARTCHAR 1EF0
ENCODING 7920
SWIDTH 480 0
DWIDTH 16 0
BBX 17 35 1 -9
BITMAP
000180
000180
000300
F01E00
F01E00
F01E00
F01E00
F01E00
F01E00
F01E00
F01E00
F01E00
F01E00
F01E00
F01E00
F01E00
F01E00
F01E00
F01E00
F01C00
701C00
701C00
783C00
3EF800
1FF000
0FE000
010000
000000
000000
000000
038000
07C000
07C000
07C000
038000
ENDCHAR
STARTCHAR 1EF1
ENCODING 7921
SWIDTH 480 0
DWIDTH 16 0
BBX 17 35 1 -9
BITMAP
000180
000180
000300
F01E00
F01E00
F01E00
F01E00
F01E00
F01E00
F01E00
F01E00
F01E00
F01E00
F01E00
F01E00
F01E00
F01E00
F01E00
F01E00
F01C00
701C00
701C00
783C00
3EF800
1FF000
0FE000
010000
000000
000000
000000
038000
07C000
07C000
07C000
038000
ENDCHAR
STARTCHAR 1EF2
ENCODING 7922
SWIDTH 480 0
DWIDTH 16 0
BBX 14 30 1 0
BITMAP
0C00
0600
0700
0300
0180
0000
0000
E01C
E01C
E01C
E01C
E01C
E01C
E01C
E01C
E01C
E01C
E01C
F01C
701C
783C
3EF8
3FF0
0FE0
0380
0380
0380
0380
0380
0380
ENDCHAR
STARTCHAR 1EF3
ENCODING 7923
SWIDTH 480 0
DWIDTH 16 0
BBX 14 30 1 0
BITMAP
0C00
0600
0700
0300
0180
0000
0000
E01C
E01C
E01C
E01C
E01C
E01C
E01C
E01C
E01C
E01C
E01C
F01C
701C
783C
3EF8
3FF0
0FE0
0380
0380
0380
0380
0380
0380
ENDCHAR
STARTCHAR 1EF4
ENCODING 7924
SWIDTH 480 0
DWIDTH 16 0
BBX 14 32 1 -9
BITMAP
E01C
E01C
E01C
E01C
E01C
E01C
E01C
E01C
E01C
E01C
E01C
F01C
701C
783C
3EF8
3FF0
0FE0
0380
0380
0380
0380
0380
0380
0000
0000
0000
0000
0380
07C0
07C0
07C0
0380
ENDCHAR
STARTCHAR 1EF5
ENCODING 7925
SWIDTH 480 0
DWIDTH 16 0
BBX 14 32 1 -9
BITMAP
E01C
E01C
E01C
E01C
E01C
E01C
E01C
E01C
E01C
E01C
E01C
F01C
701C
783C
3EF8
3FF0
0FE0
0380
0380
0380
0380
0380
0380
0000
0000
0000
0000
0380
07C0
07C0
07C0
0380
ENDCHAR
STARTCHAR 1EF6
ENCODING 7926
SWIDTH 480 0
DWIDTH 16 0
BBX 14 32 1 0
BITMAP
0300
0180
0180
0300
0300
0300
0300
0000
0000
E01C
E01C
E01C
E01C
E01C
E01C
E01C
E01C
E01C
E01C
E01C
F01C
701C
783C
3EF8
3FF0
0FE0
0380
0380
0380
0380
0380
0380
ENDCHAR
STARTCHAR 1EF7
ENCODING 7927
SWIDTH 480 0
DWIDTH 16 0
BBX 14 32 1 0
BITMAP
0300
0180
0180
0300
0300
0300
0300
0000
0000
E01C
E01C
E01C
E01C
E01C
E01C
E01C
E01C
E01C
E01C
E01C
F01C
701C
783C
3EF8
3FF0
0FE0
0380
0380
0380
0380
0380
0380
ENDCHAR
STARTCHAR 1EF8
ENCODING 7928
SWIDTH 480 0
DWIDTH 16 0
BBX 14 29 1 0
BITMAP
1FE0
1FE0
0000
0000
0000
0000
E01C
E01C
E01C
E01C
E01C
E01C
E01C
E01C
E01C
E01C
E01C
F01C
701C
783C
3EF8
3FF0
0FE0
0380
0380
0380
0380
0380
0380
ENDCHAR
STARTCHAR 1EF9
ENCODING 7929
SWIDTH 480 0
DWIDTH 16 0
BBX 14 29 1 0
BITMAP
1FE0
1FE0
0000
0000
0000
0000
E01C
E01C
E01C
E01C
E01C
E01C
E01C
E01C
E01C
E01C
E01C
F01C
701C
783C
3EF8
3FF0
0FE0
0380
0380
0380
0380
0380
0380
ENDCHAR
STARTCHAR 2013
ENCODING 8211
SWIDTH 570 0
DWIDTH 19 0
BBX 15 2 2 8
BITMAP
FFFE
FFFE
ENDCHAR
STARTCHAR 2014
ENCODING 8212
SWIDTH 780 0
DWIDTH 26 0
BBX 23 2 2 8
BITMAP
FFFFFE
FFFFFE
ENDCHAR
STARTCHAR 2018
ENCODING 8216
SWIDTH 210 0
DWIDTH 7 0
BBX 4 6 2 17
BITMAP
30
70
70
60
E0
E0
ENDCHAR
STARTCHAR 2019
ENCODING 8217
SWIDTH 210 0
DWIDTH 7 0
BBX 4 6 2 17
BITMAP
70
60
E0
E0
C0
C0
ENDCHAR
STARTCHAR 201A
ENCODING 8218
SWIDTH 210 0
DWIDTH 7 0
BBX 4 7 2 -4
BITMAP
70
70
60
E0
E0
C0
C0
ENDCHAR
STARTCHAR 201C
ENCODING 8220
SWIDTH 390 0
DWIDTH 13 0
BBX 10 6 2 17
BITMAP
30C0
3180
7180
7380
6380
E380
ENDCHAR
STARTCHAR 201D
ENCODING 8221
SWIDTH 390 0
DWIDTH 13 0
BBX 9 6 2 17
BITMAP
7380
6380
E380
E300
C300
C600
ENDCHAR
STARTCHAR 201E
ENCODING 8222
SWIDTH 420 0
DWIDTH 14 0
BBX 10 7 2 -4
BITMAP
71C0
71C0
61C0
E180
E380
C300
C300
ENDCHAR
STARTCHAR 2020
ENCODING 8224
SWIDTH 390 0
DWIDTH 13 0
BBX 10 16 2 8
BITMAP
0C00
0C00
0C00
FFC0
FFC0
FFC0
0C00
0C00
0C00
0C00
0C00
0C00
0C00
0C00
0C00
0C00
ENDCHAR
STARTCHAR 2021
ENCODING 8225
SWIDTH 390 0
DWIDTH 13 0
BBX 10 16 2 8
BITMAP
0C00
0C00
0C00
FFC0
FFC0
FFC0
0C00
0C00
0C00
0C00
FFC0
FFC0
FFC0
0C00
0C00
0C00
ENDCHAR
STARTCHAR 2022
ENCODING 8226
SWIDTH 300 0
DWIDTH 10 0
BBX 7 7 2 6
BITMAP
38
7C
FE
FE
FE
FC
7C
ENDCHAR
STARTCHAR 2026
ENCODING 8230
SWIDTH 660 0
DWIDTH 22 0
BBX 19 4 2 0
BITMAP
F1E3C0
F9F3E0
F9F3E0
F1E3C0
ENDCHAR
STARTCHAR 2030
ENCODING 8240
SWIDTH 1260 0
DWIDTH 42 0
BBX 39 24 2 0
BITMAP
0E00000000
3F801C0000
7FC0380000
E0E0700000
E0E0600000
C060E00000
C061C00000
E0E1800000
F1E3800000
7FC7000000
3F86000000
040E000000
001C000000
00387C01F0
0030FF07F8
0071EF0FBC
00E3838E0E
00C3818C0E
01C3819C0E
0383819C0E
0303838E0E
0701C78F1C
0E01FF07FC
1C007E03F0
ENDCHAR
STARTCHAR 2039
ENCODING 8249
SWIDTH 360 0
DWIDTH 12 0
BBX 8 15 2 3
BITMAP
07
07
0E
1C
38
38
70
E0
E0
70
38
1C
1C
0E
07
ENDCHAR
STARTCHAR 203A
ENCODING 8250
SWIDTH 360 0
DWIDTH 12 0
BBX 8 15 2 3
BITMAP
E0
70
70
38
1C
0E
0E
07
07
0E
1C
1C
38
70
E0
ENDCHAR
STARTCHAR 2044
ENCODING 8260
SWIDTH 660 0
DWIDTH 22 0
BBX 18 23 2 0
BITMAP
0001C0
000180
000380
000700
000600
000E00
001C00
001800
003000
007000
00E000
00C000
01C000
038000
030000
070000
0E0000
0C0000
180000
380000
700000
600000
E00000
ENDCHAR
STARTCHAR 20AC
ENCODING 8364
SWIDTH 630 0
DWIDTH 21 0
BBX 18 24 2 0
BITMAP
000700
007FC0
00FFC0
03FCC0
07C000
078000
0F0000
0E0000
1E0000
FFFE00
FFFE00
1C0000
1C0000
FFFE00
FFFE00
FFFE00
1E0000
0E0000
0F0000
078000
03E000
01FFC0
00FFC0
003FC0
ENDCHAR
STARTCHAR 2122
ENCODING 8482
SWIDTH 780 0
DWIDTH 26 0
BBX 23 13 2 11
BITMAP
FF8100
FFC18E
FFF1EE
1879FE
187FBE
186F9E
18638E
18618E
18618E
18618E
18618E
18618E
18618E
ENDCHAR
STARTCHAR 2190
ENCODING 8592
SWIDTH 810 0
DWIDTH 27 0
BBX 24 16 2 4
BITMAP
010000
038000
078000
0F0000
1E0000
3C0000
780000
FFFFFF
FFFFFF
780000
3C0000
1E0000
0F0000
078000
038000
010000
ENDCHAR
STARTCHAR 2191
ENCODING 8593
SWIDTH 570 0
DWIDTH 19 0
BBX 15 24 2 0
BITMAP
0100
0380
07C0
0FE0
1FF0
3FB8
7B9C
F38E
E386
4380
0380
0380
0380
0380
0380
0380
0380
0380
0380
0380
0380
0380
0380
0380
ENDCHAR
STARTCHAR 2192
ENCODING 8594
SWIDTH 810 0
DWIDTH 27 0
BBX 23 16 2 4
BITMAP
000100
000380
0001C0
0000E0
000070
000038
00001C
FFFFFE
FFFFFE
00001C
000038
000070
0000E0
0001C0
000380
000100
ENDCHAR
STARTCHAR 2193
ENCODING 8595
SWIDTH 570 0
DWIDTH 19 0
BBX 16 23 2 -1
BITMAP
0380
0380
0380
0380
0380
0380
0380
0380
0380
0380
0380
0380
0380
0380
4386
E38F
739E
3BBC
1FB8
0FF0
07E0
03C0
0180
ENDCHAR
STARTCHAR 2194
ENCODING 8596
SWIDTH 870 0
DWIDTH 29 0
BBX 26 16 2 4
BITMAP
01002000
03807000
07807800
0F003C00
1E001E00
3C000F00
78000780
FFFFFFC0
FFFFFFC0
78000780
3C000F00
1E001E00
0F003C00
07807800
03807000
01002000
ENDCHAR
STARTCHAR 2195
ENCODING 8597
SWIDTH 600 0
DWIDTH 20 0
BBX 17 25 2 -1
BITMAP
008000
01C000
07F000
0FF800
1FFC00
3DDE00
71CF00
E1C380
41C100
01C000
01C000
01C000
01C000
01C000
01C000
01C000
41C300
F1C780
79CF00
3DDE00
1FFC00
07F000
03E000
01C000
008000
ENDCHAR
STARTCHAR 2196
ENCODING 8598
SWIDTH 630 0
DWIDTH 21 0
BBX 18 18 2 3
BITMAP
FFE000
FFE000
FFE000
F80000
FC0000
DE0000
CF0000
C78000
C3C000
C1E000
C0F000
C07800
003C00
001E00
000F00
000780
0003C0
000180
ENDCHAR
STARTCHAR 2197
ENCODING 8599
SWIDTH 630 0
DWIDTH 21 0
BBX 18 18 2 3
BITMAP
03FFC0
03FFC0
03FFC0
0007C0
000FC0
001FC0
003DC0
0079C0
00F1C0
01E1C0
03C1C0
0781C0
0F0000
1E0000
3C0000
780000
F00000
600000
ENDCHAR
STARTCHAR 2198
ENCODING 8600
SWIDTH 630 0
DWIDTH 21 0
BBX 18 17 2 4
BITMAP
600000
F00000
780000
3C0000
1E0000
0F0000
0781C0
03C1C0
01E1C0
00F1C0
0079C0
003DC0
001FC0
000FC0
0007C0
03FFC0
03FFC0
ENDCHAR
STARTCHAR 2199
ENCODING 8601
SWIDTH 630 0
DWIDTH 21 0
BBX 18 17 2 4
BITMAP
000180
0003C0
000780
000F00
001E00
003C00
C07800
C0F000
C1E000
C3C000
C78000
CF0000
DE0000
FC0000
F80000
FFE000
FFE000
ENDCHAR
STARTCHAR 2202
ENCODING 8706
SWIDTH 570 0
DWIDTH 19 0
BBX 15 25 2 -1
BITMAP
0800
0E00
1F00
0FC0
03E0
01F0
00F8
0078
003C
001C
079E
1FEE
3FFE
7C7E
F01E
F00E
E00E
E00E
E00E
E01E
F01C
F03C
7FF8
3FF0
1FE0
ENDCHAR
STARTCHAR 2205
ENCODING 8709
SWIDTH 720 0
DWIDTH 24 0
BBX 20 20 2 2
BITMAP
01F830
07FF70
1E03E0
3801C0
3003E0
600760
600E30
C01C30
C03830
C07030
C0E030
C1C030
C38030
670030
6E0060
3C00E0
3801C0
7E0380
E7FF00
C1FC00
ENDCHAR
STARTCHAR 220F
ENCODING 8719
SWIDTH 600 0
DWIDTH 20 0
BBX 17 27 2 -3
BITMAP
FFFF80
FFFF80
FFFF80
380C00
380C00
380C00
380C00
380C00
380C00
380C00
380C00
380C00
380C00
380C00
380C00
380C00
380C00
380C00
380C00
380C00
380C00
380C00
380C00
380C00
380C00
380C00
380C00
ENDCHAR
STARTCHAR 2211
ENCODING 8721
SWIDTH 480 0
DWIDTH 16 0
BBX 13 27 2 -3
BITMAP
FFF8
FFF8
FFF8
F000
7000
7800
3800
1C00
1C00
0E00
0E00
0700
0700
0380
0380
0700
0F00
0E00
1C00
1C00
3800
3800
7000
7000
E000
FFF8
FFF8
ENDCHAR
STARTCHAR 2212
ENCODING 8722
SWIDTH 540 0
DWIDTH 18 0
BBX 15 2 2 10
BITMAP
FFFE
FFFE
ENDCHAR
STARTCHAR 221A
ENCODING 8730
SWIDTH 660 0
DWIDTH 22 0
BBX 19 27 2 -3
BITMAP
000FE0
000FE0
001FE0
001C00
001C00
003800
003800
003800
003800
007000
007000
007000
006000
00E000
E0E000
E0E000
71C000
71C000
71C000
398000
3B8000
3B8000
1B8000
1F0000
1F0000
1F0000
0E0000
ENDCHAR
STARTCHAR 221E
ENCODING 8734
SWIDTH 780 0
DWIDTH 26 0
BBX 23 11 2 6
BITMAP
3F03F0
7FC7FC
E1EE0C
C07C0E
C03806
C03806
C07C06
E0EE0E
7FC7FC
3F83F8
060040
ENDCHAR
STARTCHAR 222B
ENCODING 8747
SWIDTH 480 0
DWIDTH 16 0
BBX 13 28 2 -4
BITMAP
0038
00F8
01E0
01C0
01C0
0380
0380
0380
0380
0380
0300
0700
0700
0700
0700
0600
0E00
0E00
0E00
0E00
0E00
0C00
1C00
1C00
1C00
F800
F000
C000
ENDCHAR
STARTCHAR 2248
ENCODING 8776
SWIDTH 540 0
DWIDTH 18 0
BBX 14 10 2 6
BITMAP
FE00
FFFC
CFFC
0070
0000
0000
0000
FF00
FFFC
87FC
ENDCHAR
STARTCHAR 2260
ENCODING 8800
SWIDTH 540 0
DWIDTH 18 0
BBX 15 16 2 3
BITMAP
00E0
00E0
00C0
FFFE
FFFE
FFFE
0380
0300
0700
0700
FFFE
FFFE
FFFE
0C00
1C00
1C00
ENDCHAR
STARTCHAR 2264
ENCODING 8804
SWIDTH 540 0
DWIDTH 18 0
BBX 15 14 2 3
BITMAP
001E
01FE
1FF0
FF00
F000
FE00
3FE0
03FE
003E
0002
0000
FFFE
FFFE
FFFE
ENDCHAR
STARTCHAR 2265
ENCODING 8805
SWIDTH 540 0
DWIDTH 18 0
BBX 15 14 2 3
BITMAP
E000
FF00
3FF0
03FE
003E
00FE
1FF8
FF80
F800
0000
0000
FFFE
FFFE
FFFE
ENDCHAR
STARTCHAR 25CA
ENCODING 9674
SWIDTH 480 0
DWIDTH 16 0
BBX 12 18 2 3
BITMAP
0F00
0F80
1F80
19C0
39C0
30E0
70E0
E070
E030
E070
6070
70E0
30E0
39C0
19C0
1D80
0F80
0F00
ENDCHAR
ENDFONT
